<?xml version="1.0" encoding="utf-8"?>
<!-- Generator: Adobe Illustrator 16.0.4, SVG Export Plug-In . SVG Version: 6.00 Build 0)  -->
<!DOCTYPE svg PUBLIC "-//W3C//DTD SVG 1.1//EN" "http://www.w3.org/Graphics/SVG/1.1/DTD/svg11.dtd">
<svg version="1.1" xmlns="http://www.w3.org/2000/svg" xmlns:xlink="http://www.w3.org/1999/xlink" x="0px" y="0px" width="280px"
	 height="280px" viewBox="0 0 280 280" enable-background="new 0 0 280 280" xml:space="preserve">
<g id="local_x5F_Nıght" display="none">
	<g display="inline">
		<linearGradient id="SVGID_1_" gradientUnits="userSpaceOnUse" x1="2105.4912" y1="214.2583" x2="2205.4746" y2="214.2583">
			<stop  offset="0" style="stop-color:#000527"/>
			<stop  offset="0.1177" style="stop-color:#0B1C40"/>
			<stop  offset="0.257" style="stop-color:#162D5B"/>
			<stop  offset="0.3996" style="stop-color:#1B3B73"/>
			<stop  offset="0.5438" style="stop-color:#1B4687"/>
			<stop  offset="0.6903" style="stop-color:#1A4D96"/>
			<stop  offset="0.8405" style="stop-color:#1752A0"/>
			<stop  offset="1" style="stop-color:#1654A5"/>
		</linearGradient>
		<polygon fill="url(#SVGID_1_)" points="2177.254,284.146 2138.412,217.648 2138.412,284.146 2105.491,284.146 2105.491,144.371 
			2133.897,144.371 2172.739,210.865 2172.739,144.371 2205.475,144.371 2205.475,284.146 		"/>
		<linearGradient id="SVGID_2_" gradientUnits="userSpaceOnUse" x1="2155.4834" y1="281.9824" x2="2155.4834" y2="146.5342">
			<stop  offset="0" style="stop-color:#000527"/>
			<stop  offset="0.1177" style="stop-color:#0B1C40"/>
			<stop  offset="0.257" style="stop-color:#162D5B"/>
			<stop  offset="0.3996" style="stop-color:#1B3B73"/>
			<stop  offset="0.5438" style="stop-color:#1B4687"/>
			<stop  offset="0.6903" style="stop-color:#1A4D96"/>
			<stop  offset="0.8405" style="stop-color:#1752A0"/>
			<stop  offset="1" style="stop-color:#1654A5"/>
		</linearGradient>
		<polygon fill="url(#SVGID_2_)" points="2178.495,281.982 2136.25,209.66 2136.25,281.982 2107.654,281.982 2107.654,146.534 
			2132.656,146.534 2174.902,218.854 2174.902,146.534 2203.312,146.534 2203.312,281.982 		"/>
		<linearGradient id="SVGID_3_" gradientUnits="userSpaceOnUse" x1="2209.2168" y1="214.2583" x2="2242.1357" y2="214.2583">
			<stop  offset="0" style="stop-color:#000527"/>
			<stop  offset="0.1177" style="stop-color:#0B1C40"/>
			<stop  offset="0.257" style="stop-color:#162D5B"/>
			<stop  offset="0.3996" style="stop-color:#1B3B73"/>
			<stop  offset="0.5438" style="stop-color:#1B4687"/>
			<stop  offset="0.6903" style="stop-color:#1A4D96"/>
			<stop  offset="0.8405" style="stop-color:#1752A0"/>
			<stop  offset="1" style="stop-color:#1654A5"/>
		</linearGradient>
		<rect x="2209.217" y="144.371" fill="url(#SVGID_3_)" width="32.919" height="139.774"/>
		<linearGradient id="SVGID_4_" gradientUnits="userSpaceOnUse" x1="2225.6768" y1="281.9824" x2="2225.6768" y2="146.5342">
			<stop  offset="0" style="stop-color:#000527"/>
			<stop  offset="0.1177" style="stop-color:#0B1C40"/>
			<stop  offset="0.257" style="stop-color:#162D5B"/>
			<stop  offset="0.3996" style="stop-color:#1B3B73"/>
			<stop  offset="0.5438" style="stop-color:#1B4687"/>
			<stop  offset="0.6903" style="stop-color:#1A4D96"/>
			<stop  offset="0.8405" style="stop-color:#1752A0"/>
			<stop  offset="1" style="stop-color:#1654A5"/>
		</linearGradient>
		<rect x="2211.379" y="146.534" fill="url(#SVGID_4_)" width="28.595" height="135.449"/>
		<linearGradient id="SVGID_5_" gradientUnits="userSpaceOnUse" x1="2243.4824" y1="214.2563" x2="2388.7227" y2="214.2563">
			<stop  offset="0" style="stop-color:#000527"/>
			<stop  offset="0.1177" style="stop-color:#0B1C40"/>
			<stop  offset="0.257" style="stop-color:#162D5B"/>
			<stop  offset="0.3996" style="stop-color:#1B3B73"/>
			<stop  offset="0.5438" style="stop-color:#1B4687"/>
			<stop  offset="0.6903" style="stop-color:#1A4D96"/>
			<stop  offset="0.8405" style="stop-color:#1752A0"/>
			<stop  offset="1" style="stop-color:#1654A5"/>
		</linearGradient>
		<path fill="url(#SVGID_5_)" d="M2317.419,288.196c-10.149,0-19.83-1.98-28.78-5.885c-8.878-3.878-16.752-9.217-23.402-15.868
			c-6.652-6.653-11.991-14.525-15.87-23.399c-3.903-8.934-5.884-18.619-5.884-28.787c0-10.04,1.979-19.689,5.879-28.681
			c3.877-8.937,9.217-16.842,15.875-23.503c6.649-6.649,14.521-11.988,23.4-15.869c8.949-3.907,18.633-5.888,28.782-5.888
			c8.403,0,16.321,1.208,23.532,3.59c7.2,2.378,13.78,5.739,19.558,9.986c5.763,4.242,10.829,9.31,15.062,15.062
			c4.188,5.695,7.641,11.968,10.258,18.64l2.894,7.381h-35.84l-1.532-2.846c-1.573-2.931-3.555-5.545-5.887-7.771
			c-2.406-2.299-5.119-4.279-8.062-5.886c-2.965-1.618-6.2-2.876-9.615-3.744c-3.421-0.868-6.909-1.309-10.367-1.309
			c-5.607,0-10.956,1.088-15.895,3.235c-5.013,2.183-9.451,5.157-13.195,8.844c-3.724,3.672-6.71,8.061-8.877,13.044
			c-2.146,4.932-3.234,10.218-3.234,15.714c0,5.605,1.082,10.879,3.217,15.673c2.168,4.882,5.161,9.223,8.895,12.899
			c3.756,3.703,8.21,6.716,13.238,8.956c4.961,2.211,10.327,3.388,15.953,3.495c0.803,0.025,1.528,0.035,2.243,0.035
			c9.28,0,16.836-2.005,22.458-5.962c4.194-2.953,7.106-6.717,8.845-11.452h-37.021v-32.735h74.002v5.406
			c0,11.239-1.306,21.672-3.884,31.01c-2.649,9.604-6.909,17.97-12.662,24.867c-5.83,6.978-13.344,12.419-22.333,16.171
			C2340.312,286.32,2329.63,288.196,2317.419,288.196z"/>
		<linearGradient id="SVGID_6_" gradientUnits="userSpaceOnUse" x1="2315.7656" y1="286.0352" x2="2315.7656" y2="142.48">
			<stop  offset="0" style="stop-color:#000527"/>
			<stop  offset="0.1177" style="stop-color:#0B1C40"/>
			<stop  offset="0.257" style="stop-color:#162D5B"/>
			<stop  offset="0.3996" style="stop-color:#1B3B73"/>
			<stop  offset="0.5438" style="stop-color:#1B4687"/>
			<stop  offset="0.6903" style="stop-color:#1A4D96"/>
			<stop  offset="0.8405" style="stop-color:#1752A0"/>
			<stop  offset="1" style="stop-color:#1654A5"/>
		</linearGradient>
		<path fill="url(#SVGID_6_)" d="M2317.419,286.035c-9.849,0-19.241-1.92-27.916-5.705c-8.63-3.771-16.279-8.957-22.737-15.417
			c-6.46-6.459-11.647-14.109-15.418-22.735c-3.784-8.659-5.702-18.053-5.702-27.921c0-9.741,1.917-19.103,5.699-27.819
			c3.769-8.688,8.957-16.37,15.421-22.836c6.458-6.458,14.107-11.644,22.736-15.417c8.674-3.786,18.066-5.705,27.917-5.705
			c8.171,0,15.86,1.169,22.854,3.479c6.985,2.308,13.362,5.564,18.956,9.676c5.587,4.113,10.499,9.025,14.6,14.602
			c4.08,5.546,7.44,11.651,9.988,18.148l1.735,4.428h-31.377l-0.919-1.708c-1.683-3.131-3.803-5.928-6.299-8.311
			c-2.542-2.429-5.408-4.521-8.52-6.22c-3.122-1.701-6.525-3.028-10.119-3.941c-3.596-0.913-7.263-1.376-10.899-1.376
			c-5.905,0-11.543,1.149-16.757,3.416c-5.256,2.288-9.917,5.41-13.85,9.285c-3.921,3.867-7.065,8.485-9.343,13.723
			c-2.265,5.203-3.414,10.779-3.414,16.576c0,5.909,1.144,11.479,3.402,16.551c2.279,5.132,5.425,9.692,9.354,13.562
			c3.939,3.885,8.608,7.043,13.876,9.39c5.225,2.331,10.874,3.569,16.792,3.683c0.799,0.025,1.546,0.036,2.283,0.036
			c9.733,0,17.709-2.138,23.703-6.355c5.379-3.788,8.848-8.846,10.532-15.384h-37.793v-28.411h69.68v3.244
			c0,11.046-1.281,21.285-3.807,30.434c-2.566,9.306-6.685,17.399-12.239,24.058c-5.604,6.709-12.839,11.943-21.505,15.561
			C2339.744,284.215,2329.343,286.035,2317.419,286.035z"/>
		<linearGradient id="SVGID_7_" gradientUnits="userSpaceOnUse" x1="2389.7607" y1="214.2583" x2="2489.7412" y2="214.2583">
			<stop  offset="0" style="stop-color:#000527"/>
			<stop  offset="0.1177" style="stop-color:#0B1C40"/>
			<stop  offset="0.257" style="stop-color:#162D5B"/>
			<stop  offset="0.3996" style="stop-color:#1B3B73"/>
			<stop  offset="0.5438" style="stop-color:#1B4687"/>
			<stop  offset="0.6903" style="stop-color:#1A4D96"/>
			<stop  offset="0.8405" style="stop-color:#1752A0"/>
			<stop  offset="1" style="stop-color:#1654A5"/>
		</linearGradient>
		<polygon fill="url(#SVGID_7_)" points="2457.005,284.146 2457.005,237.901 2422.679,237.901 2422.679,284.146 2389.761,284.146 
			2389.761,144.371 2422.679,144.371 2422.679,205.166 2457.005,205.166 2457.005,144.371 2489.741,144.371 2489.741,284.146 		"/>
		<linearGradient id="SVGID_8_" gradientUnits="userSpaceOnUse" x1="2439.751" y1="281.9824" x2="2439.751" y2="146.5342">
			<stop  offset="0" style="stop-color:#000527"/>
			<stop  offset="0.1177" style="stop-color:#0B1C40"/>
			<stop  offset="0.257" style="stop-color:#162D5B"/>
			<stop  offset="0.3996" style="stop-color:#1B3B73"/>
			<stop  offset="0.5438" style="stop-color:#1B4687"/>
			<stop  offset="0.6903" style="stop-color:#1A4D96"/>
			<stop  offset="0.8405" style="stop-color:#1752A0"/>
			<stop  offset="1" style="stop-color:#1654A5"/>
		</linearGradient>
		<polygon fill="url(#SVGID_8_)" points="2459.166,281.982 2459.166,235.739 2420.518,235.739 2420.518,281.982 2391.922,281.982 
			2391.922,146.534 2420.518,146.534 2420.518,207.328 2459.166,207.328 2459.166,146.534 2487.58,146.534 2487.58,281.982 		"/>
		<linearGradient id="SVGID_9_" gradientUnits="userSpaceOnUse" x1="2493.2979" y1="214.2583" x2="2593.4629" y2="214.2583">
			<stop  offset="0" style="stop-color:#000527"/>
			<stop  offset="0.1177" style="stop-color:#0B1C40"/>
			<stop  offset="0.257" style="stop-color:#162D5B"/>
			<stop  offset="0.3996" style="stop-color:#1B3B73"/>
			<stop  offset="0.5438" style="stop-color:#1B4687"/>
			<stop  offset="0.6903" style="stop-color:#1A4D96"/>
			<stop  offset="0.8405" style="stop-color:#1752A0"/>
			<stop  offset="1" style="stop-color:#1654A5"/>
		</linearGradient>
		<polygon fill="url(#SVGID_9_)" points="2527.013,284.146 2527.013,177.29 2493.298,177.29 2493.298,144.371 2593.463,144.371 
			2593.463,177.29 2559.752,177.29 2559.752,284.146 		"/>
		<linearGradient id="SVGID_10_" gradientUnits="userSpaceOnUse" x1="2543.3799" y1="281.9824" x2="2543.3799" y2="146.5342">
			<stop  offset="0" style="stop-color:#000527"/>
			<stop  offset="0.1177" style="stop-color:#0B1C40"/>
			<stop  offset="0.257" style="stop-color:#162D5B"/>
			<stop  offset="0.3996" style="stop-color:#1B3B73"/>
			<stop  offset="0.5438" style="stop-color:#1B4687"/>
			<stop  offset="0.6903" style="stop-color:#1A4D96"/>
			<stop  offset="0.8405" style="stop-color:#1752A0"/>
			<stop  offset="1" style="stop-color:#1654A5"/>
		</linearGradient>
		<polygon fill="url(#SVGID_10_)" points="2529.175,281.982 2529.175,175.128 2495.46,175.128 2495.46,146.534 2591.301,146.534 
			2591.301,175.128 2557.59,175.128 2557.59,281.982 		"/>
	</g>
	<g display="inline">
		<linearGradient id="SVGID_11_" gradientUnits="userSpaceOnUse" x1="1521.1162" y1="214.2583" x2="1614.6104" y2="214.2583">
			<stop  offset="0" style="stop-color:#000527"/>
			<stop  offset="0.1181" style="stop-color:#0B1C40"/>
			<stop  offset="0.2571" style="stop-color:#162D5B"/>
			<stop  offset="0.3995" style="stop-color:#1B3B73"/>
			<stop  offset="0.5435" style="stop-color:#1B4687"/>
			<stop  offset="0.6898" style="stop-color:#1A4D96"/>
			<stop  offset="0.84" style="stop-color:#1752A0"/>
			<stop  offset="1" style="stop-color:#1654A5"/>
		</linearGradient>
		<polygon fill="url(#SVGID_11_)" points="1521.116,280.901 1521.116,147.615 1547.548,147.615 1547.548,254.47 1614.61,254.47 
			1614.61,280.901 		"/>
		<linearGradient id="SVGID_12_" gradientUnits="userSpaceOnUse" x1="1567.8633" y1="278.7383" x2="1567.8633" y2="149.7778">
			<stop  offset="0" style="stop-color:#000527"/>
			<stop  offset="0.1181" style="stop-color:#0B1C40"/>
			<stop  offset="0.2571" style="stop-color:#162D5B"/>
			<stop  offset="0.3995" style="stop-color:#1B3B73"/>
			<stop  offset="0.5435" style="stop-color:#1B4687"/>
			<stop  offset="0.6898" style="stop-color:#1A4D96"/>
			<stop  offset="0.84" style="stop-color:#1752A0"/>
			<stop  offset="1" style="stop-color:#1654A5"/>
		</linearGradient>
		<path fill="url(#SVGID_12_)" d="M1612.448,256.632v22.106h-89.17V149.777h22.107v106.854H1612.448z"/>
		<linearGradient id="SVGID_13_" gradientUnits="userSpaceOnUse" x1="1606.0488" y1="214.2568" x2="1747.4424" y2="214.2568">
			<stop  offset="0" style="stop-color:#000527"/>
			<stop  offset="0.1181" style="stop-color:#0B1C40"/>
			<stop  offset="0.2571" style="stop-color:#162D5B"/>
			<stop  offset="0.3995" style="stop-color:#1B3B73"/>
			<stop  offset="0.5435" style="stop-color:#1B4687"/>
			<stop  offset="0.6898" style="stop-color:#1A4D96"/>
			<stop  offset="0.84" style="stop-color:#1752A0"/>
			<stop  offset="1" style="stop-color:#1654A5"/>
		</linearGradient>
		<path fill="url(#SVGID_13_)" d="M1676.745,284.954c-9.581,0-18.767-1.891-27.303-5.616c-8.496-3.709-16.062-8.817-22.488-15.183
			c-6.431-6.367-11.575-13.908-15.29-22.412c-3.726-8.523-5.615-17.771-5.615-27.486c0-9.589,1.889-18.805,5.612-27.391
			c3.715-8.562,8.859-16.135,15.293-22.507c6.428-6.363,13.994-11.47,22.488-15.183c8.533-3.727,17.721-5.617,27.303-5.617
			c9.579,0,18.795,1.888,27.39,5.614c8.559,3.714,16.128,8.823,22.5,15.192c6.366,6.371,11.478,13.94,15.192,22.5
			c3.727,8.595,5.615,17.811,5.615,27.391c0,9.705-1.89,18.953-5.616,27.485c-3.718,8.502-8.827,16.04-15.19,22.406
			c-6.371,6.369-13.941,11.481-22.5,15.192C1695.538,283.064,1686.322,284.954,1676.745,284.954z M1676.745,170.176
			c-6.053,0-11.804,1.179-17.092,3.501c-5.321,2.342-10.062,5.541-14.092,9.512c-4.021,3.964-7.243,8.694-9.576,14.061
			c-2.326,5.352-3.506,11.073-3.506,17.008c0,6.057,1.179,11.807,3.502,17.094c2.334,5.312,5.562,10.049,9.592,14.08
			c4.028,4.029,8.765,7.254,14.079,9.588c5.282,2.324,11.032,3.503,17.093,3.503c5.938,0,11.66-1.18,17.008-3.506
			c5.373-2.336,10.139-5.561,14.164-9.586c4.027-4.027,7.254-8.766,9.59-14.079c2.324-5.292,3.503-11.044,3.503-17.094
			c0-5.93-1.18-11.651-3.506-17.008c-2.335-5.367-5.558-10.1-9.576-14.061c-4.025-3.967-8.795-7.165-14.176-9.508
			C1688.398,171.354,1682.677,170.176,1676.745,170.176z"/>
		<linearGradient id="SVGID_14_" gradientUnits="userSpaceOnUse" x1="1676.7461" y1="282.791" x2="1676.7461" y2="145.7231">
			<stop  offset="0" style="stop-color:#000527"/>
			<stop  offset="0.1181" style="stop-color:#0B1C40"/>
			<stop  offset="0.2571" style="stop-color:#162D5B"/>
			<stop  offset="0.3995" style="stop-color:#1B3B73"/>
			<stop  offset="0.5435" style="stop-color:#1B4687"/>
			<stop  offset="0.6898" style="stop-color:#1A4D96"/>
			<stop  offset="0.84" style="stop-color:#1752A0"/>
			<stop  offset="1" style="stop-color:#1654A5"/>
		</linearGradient>
		<path fill="url(#SVGID_14_)" d="M1608.212,214.257c0-9.331,1.811-18.176,5.434-26.529c3.622-8.351,8.566-15.629,14.83-21.832
			c6.264-6.2,13.542-11.113,21.832-14.737c8.291-3.622,17.101-5.436,26.438-5.436c9.332,0,18.176,1.813,26.53,5.436
			c8.35,3.624,15.626,8.537,21.831,14.737c6.199,6.203,11.113,13.481,14.737,21.832c3.621,8.354,5.437,17.198,5.437,26.529
			c0,9.458-1.815,18.329-5.437,26.621c-3.624,8.291-8.538,15.539-14.737,21.741c-6.205,6.204-13.481,11.117-21.831,14.738
			c-8.354,3.617-17.198,5.434-26.53,5.434c-9.337,0-18.146-1.816-26.438-5.434c-8.29-3.621-15.568-8.534-21.832-14.738
			c-6.264-6.202-11.208-13.45-14.83-21.741C1610.022,232.586,1608.212,223.715,1608.212,214.257z M1630.317,214.257
			c0,6.388,1.229,12.374,3.686,17.965c2.455,5.587,5.804,10.499,10.041,14.737c4.236,4.237,9.148,7.584,14.739,10.04
			c5.587,2.458,11.574,3.686,17.962,3.686c6.264,0,12.219-1.228,17.871-3.686c5.646-2.456,10.592-5.803,14.83-10.04
			c4.236-4.238,7.584-9.15,10.041-14.737c2.453-5.591,3.685-11.577,3.685-17.965c0-6.264-1.231-12.218-3.685-17.869
			c-2.457-5.648-5.805-10.562-10.041-14.739c-4.238-4.175-9.184-7.49-14.83-9.95c-5.652-2.455-11.607-3.686-17.871-3.686
			c-6.388,0-12.375,1.23-17.962,3.686c-5.591,2.46-10.503,5.775-14.739,9.95c-4.237,4.177-7.586,9.091-10.041,14.739
			C1631.546,202.039,1630.317,207.993,1630.317,214.257z"/>
		<linearGradient id="SVGID_15_" gradientUnits="userSpaceOnUse" x1="1752.5107" y1="214.2568" x2="1887.6631" y2="214.2568">
			<stop  offset="0" style="stop-color:#000527"/>
			<stop  offset="0.1181" style="stop-color:#0B1C40"/>
			<stop  offset="0.2571" style="stop-color:#162D5B"/>
			<stop  offset="0.3995" style="stop-color:#1B3B73"/>
			<stop  offset="0.5435" style="stop-color:#1B4687"/>
			<stop  offset="0.6898" style="stop-color:#1A4D96"/>
			<stop  offset="0.84" style="stop-color:#1752A0"/>
			<stop  offset="1" style="stop-color:#1654A5"/>
		</linearGradient>
		<path fill="url(#SVGID_15_)" d="M1823.208,284.954c-9.705,0-18.952-1.891-27.487-5.616c-8.502-3.713-16.038-8.824-22.403-15.189
			c-6.366-6.364-11.478-13.902-15.191-22.406c-3.726-8.523-5.615-17.771-5.615-27.485c0-9.589,1.889-18.805,5.613-27.391
			c3.713-8.562,8.824-16.132,15.193-22.5c6.365-6.364,13.902-11.475,22.402-15.189c8.533-3.727,17.781-5.617,27.488-5.617
			c7.184,0,14.036,1.026,20.369,3.05c6.293,2.015,12.2,4.792,17.556,8.258c5.361,3.471,10.184,7.526,14.335,12.054
			c4.146,4.527,7.656,9.378,10.432,14.421l1.764,3.205h-32.559l-0.634-0.634c-4.223-4.224-9.036-7.611-14.307-10.07
			c-5.215-2.436-10.921-3.668-16.956-3.668c-6.057,0-11.843,1.179-17.195,3.506c-5.378,2.341-10.147,5.54-14.173,9.507
			c-4.021,3.964-7.243,8.694-9.575,14.061c-2.326,5.351-3.506,11.072-3.506,17.008c0,6.057,1.178,11.808,3.502,17.093
			c2.334,5.312,5.561,10.05,9.591,14.081c4.024,4.026,8.79,7.25,14.161,9.584c5.346,2.327,11.131,3.507,17.195,3.507
			c6.048,0,11.826-1.208,17.174-3.591c5.381-2.397,10.185-5.688,14.275-9.778l0.633-0.633h32.324l-1.703,3.183
			c-2.897,5.415-6.509,10.465-10.731,15.007c-4.232,4.545-9.062,8.511-14.354,11.788c-5.305,3.287-11.19,5.878-17.49,7.7
			C1837.023,284.026,1830.251,284.954,1823.208,284.954z"/>
		<linearGradient id="SVGID_16_" gradientUnits="userSpaceOnUse" x1="1819.3389" y1="282.791" x2="1819.3389" y2="145.7231">
			<stop  offset="0" style="stop-color:#000527"/>
			<stop  offset="0.1181" style="stop-color:#0B1C40"/>
			<stop  offset="0.2571" style="stop-color:#162D5B"/>
			<stop  offset="0.3995" style="stop-color:#1B3B73"/>
			<stop  offset="0.5435" style="stop-color:#1B4687"/>
			<stop  offset="0.6898" style="stop-color:#1A4D96"/>
			<stop  offset="0.84" style="stop-color:#1752A0"/>
			<stop  offset="1" style="stop-color:#1654A5"/>
		</linearGradient>
		<path fill="url(#SVGID_16_)" d="M1776.596,214.257c0,6.388,1.228,12.374,3.687,17.965c2.454,5.587,5.802,10.499,10.041,14.737
			c4.235,4.237,9.179,7.584,14.828,10.04c5.648,2.458,11.669,3.686,18.057,3.686c6.384,0,12.403-1.261,18.054-3.778
			c5.647-2.517,10.623-5.923,14.924-10.225h27.818c-2.827,5.283-6.296,10.132-10.408,14.556c-4.117,4.421-8.753,8.228-13.909,11.421
			c-5.161,3.198-10.81,5.685-16.952,7.462c-6.141,1.778-12.651,2.671-19.526,2.671c-9.458,0-18.332-1.816-26.622-5.434
			c-8.291-3.621-15.539-8.534-21.739-14.738c-6.205-6.202-11.117-13.45-14.738-21.741c-3.625-8.292-5.436-17.163-5.436-26.621
			c0-9.331,1.811-18.176,5.436-26.529c3.621-8.351,8.533-15.629,14.738-21.832c6.2-6.2,13.448-11.113,21.739-14.737
			c8.29-3.622,17.164-5.436,26.622-5.436c6.999,0,13.569,0.984,19.71,2.946c6.143,1.968,11.82,4.638,17.041,8.015
			c5.223,3.382,9.859,7.278,13.913,11.699c4.051,4.421,7.43,9.091,10.132,14.003H1856c-4.421-4.422-9.395-7.923-14.922-10.502
			c-5.527-2.58-11.486-3.871-17.87-3.871c-6.388,0-12.408,1.23-18.057,3.686c-5.649,2.46-10.593,5.775-14.828,9.95
			c-4.239,4.177-7.587,9.091-10.041,14.739C1777.823,202.039,1776.596,207.993,1776.596,214.257z"/>
		<linearGradient id="SVGID_17_" gradientUnits="userSpaceOnUse" x1="1880.4902" y1="214.2583" x2="1988.8477" y2="214.2583">
			<stop  offset="0" style="stop-color:#000527"/>
			<stop  offset="0.1181" style="stop-color:#0B1C40"/>
			<stop  offset="0.2571" style="stop-color:#162D5B"/>
			<stop  offset="0.3995" style="stop-color:#1B3B73"/>
			<stop  offset="0.5435" style="stop-color:#1B4687"/>
			<stop  offset="0.6898" style="stop-color:#1A4D96"/>
			<stop  offset="0.84" style="stop-color:#1752A0"/>
			<stop  offset="1" style="stop-color:#1654A5"/>
		</linearGradient>
		<path fill="url(#SVGID_17_)" d="M1961.288,280.901l-15.106-46.244h-23.38l-14.738,46.244h-27.573l42.65-133.286h23.059
			l42.648,133.286H1961.288z M1938.808,212.094l-4.11-14.5l-4.005,14.5H1938.808z"/>
		<linearGradient id="SVGID_18_" gradientUnits="userSpaceOnUse" x1="1934.6689" y1="278.7383" x2="1934.6689" y2="149.7778">
			<stop  offset="0" style="stop-color:#000527"/>
			<stop  offset="0.1181" style="stop-color:#0B1C40"/>
			<stop  offset="0.2571" style="stop-color:#162D5B"/>
			<stop  offset="0.3995" style="stop-color:#1B3B73"/>
			<stop  offset="0.5435" style="stop-color:#1B4687"/>
			<stop  offset="0.6898" style="stop-color:#1A4D96"/>
			<stop  offset="0.84" style="stop-color:#1752A0"/>
			<stop  offset="1" style="stop-color:#1654A5"/>
		</linearGradient>
		<path fill="url(#SVGID_18_)" d="M1985.884,278.738h-23.027l-15.106-46.242h-26.529l-14.737,46.242h-23.029l41.266-128.961h19.9
			L1985.884,278.738z M1927.852,214.257h13.816l-6.998-24.688L1927.852,214.257z"/>
		<linearGradient id="SVGID_19_" gradientUnits="userSpaceOnUse" x1="1994.042" y1="214.2583" x2="2087.5312" y2="214.2583">
			<stop  offset="0" style="stop-color:#000527"/>
			<stop  offset="0.1181" style="stop-color:#0B1C40"/>
			<stop  offset="0.2571" style="stop-color:#162D5B"/>
			<stop  offset="0.3995" style="stop-color:#1B3B73"/>
			<stop  offset="0.5435" style="stop-color:#1B4687"/>
			<stop  offset="0.6898" style="stop-color:#1A4D96"/>
			<stop  offset="0.84" style="stop-color:#1752A0"/>
			<stop  offset="1" style="stop-color:#1654A5"/>
		</linearGradient>
		<polygon fill="url(#SVGID_19_)" points="1994.042,280.901 1994.042,147.615 2020.472,147.615 2020.472,254.47 2087.531,254.47 
			2087.531,280.901 		"/>
		<linearGradient id="SVGID_20_" gradientUnits="userSpaceOnUse" x1="2040.7861" y1="278.7383" x2="2040.7861" y2="149.7778">
			<stop  offset="0" style="stop-color:#000527"/>
			<stop  offset="0.1181" style="stop-color:#0B1C40"/>
			<stop  offset="0.2571" style="stop-color:#162D5B"/>
			<stop  offset="0.3995" style="stop-color:#1B3B73"/>
			<stop  offset="0.5435" style="stop-color:#1B4687"/>
			<stop  offset="0.6898" style="stop-color:#1A4D96"/>
			<stop  offset="0.84" style="stop-color:#1752A0"/>
			<stop  offset="1" style="stop-color:#1654A5"/>
		</linearGradient>
		<path fill="url(#SVGID_20_)" d="M2085.369,256.632v22.106h-89.166V149.777h22.105v106.854H2085.369z"/>
	</g>
</g>
<g id="Logo">
	<g id="Circle">
		<radialGradient id="SVGID_21_" cx="137.4404" cy="165.1616" r="84.4854" gradientUnits="userSpaceOnUse">
			<stop  offset="0" style="stop-color:#000527"/>
			<stop  offset="0.3904" style="stop-color:#142A55"/>
			<stop  offset="0.8068" style="stop-color:#1B488B"/>
			<stop  offset="1" style="stop-color:#1654A5"/>
		</radialGradient>
		<circle fill="url(#SVGID_21_)" cx="137.441" cy="165.162" r="84.486"/>
		<linearGradient id="grad_iza_1_" gradientUnits="userSpaceOnUse" x1="141.915" y1="30.9155" x2="141.915" y2="173.1182">
			<stop  offset="0" style="stop-color:#000527"/>
			<stop  offset="0.0511" style="stop-color:#030F31"/>
			<stop  offset="0.2219" style="stop-color:#12264F"/>
			<stop  offset="0.3914" style="stop-color:#19376B"/>
			<stop  offset="0.5563" style="stop-color:#1B4382"/>
			<stop  offset="0.7155" style="stop-color:#1A4C93"/>
			<stop  offset="0.8663" style="stop-color:#18519F"/>
			<stop  offset="1" style="stop-color:#1654A5"/>
		</linearGradient>
		<path id="grad_iza_2_" fill="url(#grad_iza_1_)" d="M230.325,169.181c-0.03-0.933-0.072-1.858-0.124-2.775
			c-0.769,0.056-1.539,0.112-2.311,0.168c-0.046-0.818-0.1-1.629-0.165-2.435c1.066-0.107,2.133-0.214,3.198-0.319
			c-0.068-0.861-0.146-1.716-0.232-2.563c2.031-0.26,4.063-0.52,6.095-0.78c-0.218-2.136-0.491-4.233-0.818-6.291
			c-3.161,0.61-6.323,1.222-9.485,1.832c-0.307,0.059-0.614,0.118-0.921,0.178c-0.049-0.306-0.099-0.612-0.15-0.917
			c3.432-0.7,6.865-1.4,10.297-2.1c-0.088-0.523-0.18-1.043-0.274-1.561c0.564-1.068,1.114-2.15,1.649-3.243
			c-0.356-1.692-0.748-3.357-1.175-4.993c-0.987-0.38-1.975-0.74-2.961-1.081c-0.417-0.473-0.834-0.938-1.257-1.395
			c-3.153,1.083-6.307,2.167-9.46,3.251c-0.063-0.213-0.129-0.426-0.194-0.637c0.349-0.123,0.698-0.247,1.046-0.369
			c-0.066-0.215-0.133-0.43-0.201-0.644c6.559-2.364,13.118-4.728,19.676-7.092c-0.232-0.736-0.473-1.466-0.72-2.19
			c0.294-0.113,0.587-0.226,0.88-0.338c0.155-1.242,0.292-2.488,0.408-3.737c0.429-0.18,0.86-0.359,1.289-0.539
			c-1.062-2.834-2.226-5.582-3.485-8.243c-0.402,0.207-0.805,0.414-1.209,0.62c-1.14-0.867-2.289-1.699-3.444-2.493
			c-0.206,0.113-0.409,0.227-0.614,0.34c-0.275-0.532-0.557-1.061-0.842-1.585c-1.739,1.003-3.479,2.006-5.219,3.01
			c-0.77-1.42-1.57-2.812-2.402-4.173c-1.021,0.653-2.042,1.305-3.062,1.958c-0.317-0.519-0.637-1.032-0.963-1.542
			c-1.376,0.914-2.752,1.828-4.129,2.743c-0.679-1.062-1.378-2.105-2.096-3.127c2.939-2.121,5.878-4.242,8.816-6.363
			c-0.256-0.366-0.517-0.729-0.777-1.091c1.185-0.877,2.37-1.756,3.555-2.634c-0.404-0.561-0.817-1.117-1.232-1.666
			c3.89-2.994,7.78-5.987,11.67-8.98c-0.405-0.526-0.813-1.048-1.225-1.565c0.117-0.094,0.235-0.187,0.354-0.281
			c-0.605-0.771-1.22-1.533-1.842-2.285c0.227-0.384,0.452-0.769,0.677-1.155c-0.419,0.153-0.836,0.308-1.254,0.464
			c-1.494-1.775-3.038-3.496-4.625-5.162c0.202-0.396,0.403-0.792,0.603-1.19c-0.409,0.181-0.816,0.362-1.223,0.545
			c-0.612-0.632-1.231-1.256-1.856-1.873c-0.13,0.128-0.258,0.257-0.388,0.386c-0.477-0.463-0.957-0.921-1.441-1.375
			c-3,3.082-5.999,6.163-8.999,9.244c-0.526-0.139-1.053-0.274-1.579-0.403c-0.915-0.846-1.843-1.674-2.784-2.482
			c1.702-1.915,3.403-3.829,5.105-5.744c-0.761-1.924-1.585-3.84-2.47-5.742c-2.47-1.913-5.014-3.72-7.622-5.418
			c-0.422,0.609-0.845,1.22-1.267,1.829c-0.619-0.403-1.242-0.8-1.869-1.191c-1.544,2.319-3.088,4.639-4.632,6.959
			c-0.708-0.441-1.419-0.875-2.136-1.299c0.633-0.997,1.264-1.993,1.896-2.99c-1.697-1.005-3.42-1.964-5.166-2.878
			c-0.714,1.264-1.429,2.527-2.143,3.791c-0.431-0.226-0.864-0.449-1.298-0.668c2.415-4.405,4.829-8.811,7.244-13.216
			c-0.322-0.163-0.644-0.324-0.967-0.484c0.096-0.178,0.191-0.356,0.287-0.535c-3.613-1.791-7.314-3.407-11.083-4.85
			c-0.078,0.186-0.156,0.372-0.234,0.558c-0.374-0.144-0.749-0.285-1.125-0.425c-2.191,5.353-4.381,10.705-6.572,16.057
			c-0.827-0.308-1.656-0.605-2.49-0.894c2.249-5.896,4.497-11.792,6.746-17.689c1.219-3.196,2.438-6.392,3.657-9.589
			c-0.522-0.181-1.046-0.358-1.571-0.533c-0.643-0.214-1.288-0.424-1.934-0.629c-3.712-1.178-7.475-2.208-11.274-3.089
			c-0.662-0.154-1.325-0.303-1.989-0.448c-0.564-0.123-1.13-0.242-1.695-0.358c-2.801,12.201-5.602,24.402-8.402,36.603
			c-0.648-0.133-1.298-0.261-1.949-0.382c1.614-7.73,3.228-15.459,4.841-23.19c-0.383-0.071-0.767-0.142-1.151-0.209
			c0.056-0.281,0.112-0.562,0.167-0.844c-0.531-0.095-1.063-0.186-1.595-0.274c-0.053,0.282-0.105,0.563-0.157,0.846
			c-0.526-0.087-1.054-0.171-1.583-0.252c0.015-0.083,0.028-0.165,0.042-0.248c-0.412-0.063-0.824-0.125-1.237-0.184
			c-0.013,0.083-0.027,0.165-0.04,0.248c-0.471-0.068-0.943-0.134-1.415-0.197c0.012-0.083,0.025-0.166,0.037-0.248
			c-0.591-0.079-1.182-0.154-1.773-0.225c-0.012,0.083-0.022,0.165-0.034,0.248c-0.65-0.078-1.302-0.151-1.952-0.221
			c0.024-0.208,0.05-0.417,0.074-0.626c-0.446-0.047-0.892-0.092-1.339-0.135c-0.023,0.209-0.045,0.418-0.067,0.627
			c-0.207-0.02-0.414-0.04-0.62-0.059c0.008-0.083,0.017-0.166,0.025-0.249c-0.415-0.038-0.832-0.074-1.248-0.109
			c-0.007,0.083-0.015,0.166-0.023,0.25c-0.557-0.046-1.113-0.088-1.671-0.128c-0.599,7.255-1.192,14.51-1.783,21.766
			c-0.046,0.594-0.093,1.189-0.14,1.783c-0.674-0.053-1.347-0.101-2.022-0.143c0.501-8.6,1.002-17.199,1.504-25.799
			c-0.069-0.003-0.139-0.007-0.208-0.01c-0.256-0.123-0.513-0.245-0.771-0.366c-0.405-0.018-0.809-0.035-1.214-0.049
			c-0.268,0.1-0.534,0.201-0.799,0.303c-0.919-0.028-1.838-0.047-2.757-0.058c0.002-0.238,0.005-0.476,0.009-0.714
			c-0.879-0.01-1.758-0.012-2.637-0.005c0.002,0.238,0.003,0.477,0.005,0.715c-0.647,0.004-1.294,0.014-1.942,0.028
			c0-0.076-0.003-0.152-0.005-0.229c-0.647,0.014-1.296,0.032-1.943,0.055c0.002,0.076,0.006,0.151,0.008,0.228
			c-0.647,0.022-1.294,0.05-1.941,0.081c-0.004-0.076-0.008-0.151-0.012-0.228c-0.323,0.016-0.645,0.033-0.968,0.05
			c0.005,0.076,0.009,0.152,0.014,0.229c-0.397,0.022-0.794,0.045-1.19,0.07c0.613,8.544,1.228,17.088,1.842,25.632
			c-0.552,0.035-1.104,0.074-1.656,0.118c-0.981,0.716-1.941,1.445-2.879,2.186c-0.884-7.366-1.768-14.732-2.651-22.098
			c-0.331,0.036-0.662,0.073-0.993,0.11c-0.04-0.308-0.079-0.615-0.119-0.923c-0.324,0.038-0.65,0.076-0.975,0.115
			c0.021,0.151,0.041,0.3,0.062,0.451c-0.216,0.026-0.433,0.053-0.648,0.081c0.022,0.157,0.044,0.313,0.066,0.471
			c-1.827,0.232-3.648,0.5-5.463,0.807c-0.018-0.097-0.036-0.194-0.055-0.291c-0.535,0.09-1.067,0.184-1.6,0.28
			c0.02,0.097,0.04,0.194,0.059,0.291c-0.426,0.078-0.853,0.157-1.278,0.239c-0.049-0.23-0.099-0.46-0.147-0.69
			c-0.215,0.041-0.43,0.083-0.644,0.125c0.051,0.23,0.102,0.46,0.152,0.69c-0.742,0.146-1.483,0.298-2.223,0.457
			c-0.02-0.081-0.039-0.162-0.058-0.242c-0.389,0.083-0.776,0.169-1.165,0.256c0.021,0.081,0.041,0.161,0.061,0.242
			c-0.457,0.103-0.915,0.208-1.371,0.315c-0.036-0.14-0.073-0.279-0.11-0.419c-0.245,0.058-0.492,0.117-0.737,0.176
			c0.038,0.14,0.075,0.279,0.112,0.418c-0.17,0.041-0.34,0.083-0.511,0.125c2.029,7.409,4.059,14.818,6.087,22.228
			c-1.923,0.473-3.832,1-5.722,1.582c-0.278-0.816-0.556-1.631-0.833-2.447c-2.928-8.609-5.857-17.219-8.785-25.828
			c-0.42-1.235-0.839-2.471-1.26-3.706c-3.038,0.389-6.08,0.882-9.118,1.48c-0.531-0.991-1.064-1.981-1.601-2.971
			c0.798-0.525,1.257-1.107,1.087-1.526c-0.182-0.448-1.041-0.574-2.111-0.367c-1.265-2.321-2.543-4.636-3.835-6.944
			c-0.055,0.021-0.11,0.043-0.165,0.065c-1.272-2.368-2.556-4.73-3.851-7.087c1.005,2.473,2.014,4.944,3.025,7.414
			c-0.068,0.027-0.136,0.054-0.204,0.082c0.837,2.493,1.687,4.982,2.548,7.466c-0.884,0.572-1.376,1.223-1.176,1.654
			c0.188,0.407,0.931,0.511,1.87,0.351c0.368,1.051,0.738,2.101,1.11,3.15c-2.411,1.531-4.757,3.13-7.037,4.797
			c1.616,3.06,3.231,6.119,4.846,9.179c3.559,6.74,7.117,13.479,10.676,20.219c-1.38,0.672-2.744,1.375-4.09,2.111
			c-0.991-1.683-1.981-3.366-2.972-5.048c-2.366-4.02-4.733-8.04-7.099-12.06c-1.19,0.235-2.382,0.49-3.575,0.765
			c-0.784,0.467-1.562,0.944-2.335,1.43c-3.266,2.564-6.378,5.296-9.319,8.191c-0.625,0.489-1.244,0.986-1.857,1.49
			c0.213,0.251,0.427,0.501,0.641,0.752c-0.713,0.584-1.419,1.179-2.119,1.784c0.681,0.76,1.36,1.521,2.041,2.281
			c0.518,0.579,1.035,1.158,1.553,1.737c-0.22,0.19-0.438,0.38-0.655,0.572c-0.662,1.639-1.274,3.286-1.841,4.94
			c1.806,1.827,3.611,3.653,5.417,5.48c-0.774,0.75-1.536,1.514-2.287,2.293c-0.152-0.144-0.303-0.288-0.455-0.431
			c-1.288,1.338-2.542,2.721-3.755,4.149c0.159,0.135,0.318,0.271,0.478,0.406c-0.628,0.738-1.246,1.488-1.853,2.249
			c-0.54-0.434-1.08-0.869-1.62-1.304c-0.423,0.532-0.841,1.068-1.254,1.611c-0.422-0.327-0.844-0.653-1.266-0.98
			c-0.535,0.704-1.062,1.417-1.581,2.14c0.43,0.315,0.86,0.631,1.29,0.947c-0.166,0.23-0.33,0.463-0.494,0.696
			c1.687,1.218,3.373,2.435,5.06,3.654c-0.423,0.602-0.84,1.21-1.25,1.826c0.752,0.518,1.505,1.037,2.257,1.555
			c-0.386,0.581-0.767,1.168-1.142,1.761c-1.529-0.997-3.059-1.994-4.588-2.989c-0.432,0.686-0.856,1.378-1.272,2.08
			c-0.421-0.262-0.841-0.524-1.262-0.787c-0.832,1.405-1.633,2.841-2.4,4.308c0.685,0.383,1.37,0.765,2.054,1.147
			c-0.225,0.43-0.447,0.864-0.666,1.3c1.406,0.75,2.811,1.502,4.215,2.253c-0.603,1.207-1.18,2.434-1.734,3.684
			c-0.247-0.12-0.493-0.239-0.739-0.359c-0.065,0.147-0.131,0.294-0.195,0.441c-0.244-0.116-0.487-0.234-0.73-0.351
			c-1.055,2.4-2.019,4.882-2.887,7.442c0.252,0.096,0.503,0.192,0.755,0.288c-0.34,1.002-0.665,2.017-0.975,3.043
			c0.297,0.103,0.594,0.205,0.891,0.308c-0.346,1.147-0.673,2.31-0.98,3.488c-0.666-0.202-1.333-0.404-1.998-0.606
			c-0.243,0.932-0.475,1.875-0.693,2.827c0.487,0.131,0.974,0.264,1.461,0.395c-0.176,0.769-0.345,1.543-0.505,2.324
			c-0.939-0.229-1.878-0.458-2.816-0.688c-0.65,3.168-1.168,6.44-1.545,9.812c0.286,0.04,0.572,0.08,0.857,0.12
			c-0.013,0.12-0.026,0.24-0.04,0.361c-0.683-0.092-1.366-0.185-2.048-0.278c-0.08,0.73-0.152,1.464-0.218,2.203
			c0.684,0.077,1.368,0.154,2.053,0.232c-0.019,0.206-0.037,0.412-0.054,0.62c-0.523-0.056-1.047-0.112-1.571-0.168
			c-0.074,0.892-0.14,1.792-0.195,2.696c0.524,0.042,1.049,0.083,1.574,0.125c-0.009,0.149-0.019,0.299-0.027,0.448
			c-0.355-0.026-0.71-0.053-1.065-0.079c-0.119,2.364-0.171,4.772-0.154,7.226c6.208,0.011,12.417,0.021,18.625,0.03
			c-0.146-40.461,22.954-65.663,51.73-75.361c19.49-6.365,41.399-5.619,60.253,2.161c20.82,8.692,37.813,25.957,43.78,51.595
			c1.572,6.621,2.411,13.809,2.391,21.562c5.032,0.012,10.065,0.025,15.098,0.043C231.364,171.771,230.854,170.458,230.325,169.181z
			"/>
		<circle id="Ring" fill="#FFFFFF" cx="137.441" cy="165.163" r="80.429"/>
		<radialGradient id="SVGID_22_" cx="137.4404" cy="165.1616" r="78.3567" gradientUnits="userSpaceOnUse">
			<stop  offset="0" style="stop-color:#1F266E"/>
			<stop  offset="0.1776" style="stop-color:#1F2E74"/>
			<stop  offset="0.4693" style="stop-color:#1D4185"/>
			<stop  offset="0.5753" style="stop-color:#1B498D"/>
			<stop  offset="0.6433" style="stop-color:#1A4B92"/>
			<stop  offset="0.8381" style="stop-color:#18519F"/>
			<stop  offset="1" style="stop-color:#1654A5"/>
		</radialGradient>
		<circle fill="url(#SVGID_22_)" cx="137.44" cy="165.161" r="78.356"/>
		<text transform="matrix(1 0 0 1 100.207 223.0073)" fill="#FFFFFF" font-family="'SegoeScript-Bold'" font-size="12.1034">Local Night</text>
		<path id="Upper_Line" fill-rule="evenodd" clip-rule="evenodd" fill="#FFFFFF" d="M195.567,210.69
			c0,0.095-0.364,0.171-0.812,0.171H80.184c-0.448,0-0.812-0.077-0.812-0.171l0,0c0-0.093,0.364-0.169,0.812-0.169h114.571
			C195.203,210.521,195.567,210.598,195.567,210.69L195.567,210.69z"/>
		<path id="Lower_Line" fill-rule="evenodd" clip-rule="evenodd" fill="#FFFFFF" d="M176.428,227.771
			c0,0.104-0.244,0.189-0.545,0.189H99.056c-0.3,0-0.544-0.085-0.544-0.189l0,0c0-0.102,0.244-0.186,0.544-0.186h76.828
			C176.184,227.584,176.428,227.668,176.428,227.771L176.428,227.771z"/>
	</g>
	<g id="OrigCouple" display="none">
		<g display="inline">
			<defs>
				<rect id="SVGID_23_" x="64.833" y="118.55" width="137.65" height="84.96"/>
			</defs>
			<clipPath id="SVGID_24_">
				<use xlink:href="#SVGID_23_"  overflow="visible"/>
			</clipPath>
			<g clip-path="url(#SVGID_24_)">
				<defs>
					<polygon id="SVGID_25_" points="200.749,118.55 152.2,121.44 88.625,119.706 73.395,142.263 64.833,152.072 66.662,200.042 
						202.482,203.51 					"/>
				</defs>
				<clipPath id="SVGID_26_">
					<use xlink:href="#SVGID_25_"  overflow="visible"/>
				</clipPath>
				<path clip-path="url(#SVGID_26_)" fill="#FFFFFF" d="M174.752,170.303c2.612,0.474,5.822,1.018,6.587,0.915
					c1.271-0.172,3.299-0.518,5.086-1.726c1.663-1.124,2.908-4.427,2.963-6.105c0.032-0.177,0.032-0.299-0.008-0.348
					c-0.137-1.519-1.031-4.417-1.615-5.245c-0.584-0.828-3.196-3.865-4.124-5.245c-0.928-1.38-3.574-5.729-3.574-5.729
					s-0.008,0-0.022,0.001c-0.354-0.709-1.03-2.062-1.18-2.348c-0.206-0.391-0.619-1.357-0.619-1.357s3.826,2.277,5.041,2.967
					c1.214,0.69,3.116,1.703,3.917,2.048c0.802,0.345,2.153,0.414,2.153,0.414s2.521-4.141,3.093-5.544s1.626-4.647,1.947-5.429
					s0.504-1.334,0.825-1.495c0.076-0.039,0.196-0.134,0.336-0.26l0.26,0.006l-0.192-0.068c0.445-0.413,1.042-1.077,1.109-1.243
					c0.091-0.23-0.138-0.759-0.138-0.759s-0.069-0.437-0.069-0.621s-0.275-0.875-0.481-0.851c-0.206,0.023-0.687-0.207-0.848-0.391
					c-0.066-0.076-0.156-0.219-0.239-0.361c0.855-1.352,3.057-2.331,3.057-2.331l-3.471,0.067l-3.471-0.067
					c0,0,2.286,1.017,3.104,2.408c-0.097,0.165-0.386,0.625-0.721,0.905c-0.412,0.345-0.985,0.736-1.1,1.081
					c-0.115,0.345,0,1.496,0.367,1.887c0.366,0.391,0.435,0.483,0.344,0.851c-0.092,0.368-2.692,4.728-3.311,5.728
					c-0.619,1.001-1.615,2.554-1.856,2.485c-0.241-0.069-3.78-2.105-4.708-2.726c-0.928-0.622-4.845-3.692-5.876-4.383
					c-1.031-0.69-2.062-1.38-3.814-0.552c-1.305,0.617-2.172,0.64-2.686,0.569c0.184-0.072,0.303-0.132,0.303-0.132
					s-0.143,0.069-0.366,0.123c-0.145-0.023-0.259-0.054-0.344-0.077c-0.081-0.022-0.258-0.116-0.483-0.26
					c0.151,0.003,0.282-0.01,0.368-0.039c0.275-0.092,1.191-0.276,1.397-0.805c0.206-0.529-0.252-1.012-0.252-1.012
					s0.367,0.506,0.046,0.897s-1.26,0.46-1.879,0.115c-0.618-0.345-0.871-1.84-0.802-2.162c0.069-0.322,0.688-0.897,1.031-1.38
					c0.343-0.483,0.687-2.094,0.618-2.554c-0.068-0.46-0.389-1.012-0.298-1.058c0.092-0.046,0.802-0.368,1.146-0.759
					c0.344-0.391,0.573-2.047,0.252-3.106c-0.321-1.058-2.429-2.024-3.139-2.116c-0.71-0.092-1.855,0.299-1.855,0.299l0.138-0.115
					c0.137-0.115,0.939-0.506,0.939-0.506s-1.214,0.253-1.649,0.874c-0.435,0.622-0.573,1.403-0.573,1.403l-0.458,0.046
					c-0.458,0.046-1.1,0.046-1.695,0.506c-0.596,0.46-2.498,1.012-3.368,1.312c-0.871,0.299-1.901,1.219-2.176,1.61
					c-0.214,0.305,0.572,0.986,0.93,1.272c-0.063,0.414-0.116,0.888-0.083,1.167c0.068,0.575,0.252,1.357,0.16,1.817
					c-0.092,0.46-0.389,1.104-0.596,1.519c-0.206,0.414-0.343,0.621-0.206,0.782c0.137,0.161,0.619,0.138,0.825,0.368
					s0.183,0.253,0.023,0.483s-0.275,0.276-0.275,0.276s0.092,0.322,0.344,0.529s0.389,0.207,0.389,0.207s-0.114,0.161-0.114,0.368
					s0.023,0.368,0.229,0.414s0.367-0.023,0.481,0.138c0.114,0.161,0.183,0.483,0.114,0.575c-0.069,0.092,0.092,0.529,0.573,0.645
					c0.481,0.115,1.558-0.437,2.131-0.736c0.573-0.299,1.191-0.667,1.42-0.644c0.229,0.023,0.71,0.092,1.146,0.529
					c0.435,0.438,0.458,0.69,0.458,0.69s-0.367,0.437-0.665,0.874c-0.297,0.437-0.756,1.726-1.054,2.922s-1.214,5.866-1.466,6.787
					c-0.252,0.92-0.573,2.254-0.664,2.944c-0.092,0.69-0.115,1.933-0.115,1.933c0.023,0.207,2.612,2.531,3.551,3.152
					c0.277,0.183,0.797,0.584,1.408,1.07c-2.74-0.484-6.59-1.146-6.999-1.117c-0.456,0.033-1.934,1.546-1.901,1.587
					c-0.131,0.251-0.481,1.311-0.481,1.311c-0.091,0.46-1.42,6.58-1.878,8.328c-0.458,1.749-1.649,6.534-1.787,7.362
					s-1.283,5.061-1.695,5.981c-0.413,0.92-1.466,2.76-2.062,3.819c-0.538,0.955-1.271,2.442-1.409,2.724
					c-0.052-0.01-0.103-0.014-0.149-0.009c-0.458,0.046-0.744,0.378-2.107,0.276c-0.372-0.028-0.75-0.336-1.043-0.227
					c-0.007-0.002-0.01-0.003-0.01-0.003s-0.022,0.012-0.054,0.036c-0.05,0.031-0.097,0.078-0.141,0.143
					c-0.193,0.292-0.137,0.644,0.55,1.104c0.194,0.13,0.478,0.303,0.818,0.482c0.098,0.052,0.199,0.104,0.304,0.154
					c0.832,0.404,1.907,0.79,2.875,0.75c1.624-0.067,2.005-0.419,2.509-1.202s1.569-2.249,1.844-2.617
					c0.173-0.231,0.237-0.317,0.261-0.349c0.004-0.003,0.008-0.007,0.011-0.01l-1.372,4.316l1.043,0.24c0,0,1.019-3.23,1.477-4.243
					c0.458-1.012,0.768-1.462,0.401-2.153c-0.367-0.69-0.458-0.782-0.458-0.782s-0.027,0.029-0.077,0.081
					c-0.15-0.181-0.299-0.363-0.417-0.551c-0.458-0.736-0.137-1.472,0.046-1.84c0.155-0.311,3.543-7.181,5.119-10.227
					c0.206,0.281,0.386,0.538,0.517,0.749c0.688,1.104,8.614,12.745,9.714,15.184c1.1,2.438,1.787,6.303,1.787,6.947
					c0,0.055-0.009,0.113-0.025,0.175c-0.07,0.033-0.12,0.078-0.138,0.142c-0.092,0.322-1.161,1.518-1.344,1.749
					c-0.183,0.23,0.084,0.882,1.161,0.491c0.858-0.312,3.21-1.383,3.531-2.28c0.024-0.068,0.241-0.542-0.263-1.953
					c-0.259-0.726-0.584-3.154-0.264-3.522c0.033-0.029,0.079-0.019,0.136,0.022c0.568,0.45,2.316,4.276,2.316,4.276l0.729-0.577
					c0,0-2.291-5.199-2.612-5.843c-0.245-0.493-1.064-0.767-1.436-0.868c-0.363-0.121-0.728-0.209-1.012-0.277
					c-0.481-0.115-0.654-0.499-0.825-0.828c-0.275-0.529-3.116-8.788-3.437-10.122c-0.32-1.334-2.474-4.095-2.795-4.555
					c-0.321-0.46-2.199-2.438-2.199-2.438l2.458-0.211c-0.048,0.018-0.076,0.027-0.076,0.027s4.639,1.277,5.43,1.38
					c0.124,0.016,0.424,0.069,0.848,0.147L174.752,170.303z M165.049,152.549c0.03-0.229,0.635-2.267,0.596-2.301
					c-0.034-0.029-0.068-0.067-0.102-0.11c0.416,0.368,0.965,0.678,1.362,0.72c0.653,0.069,2.543,0.069,2.543,0.069
					s0.962,1.104,1.649,1.967c0.688,0.863,2.715,1.863,3.437,2.312s1.581,1.519,1.409,2.278c-0.172,0.759,0.172,1.173-0.069,1.518
					s-0.206,0.725-0.619,0.794c-0.223,0.037-2.27-0.33-4.1-0.675c-0.295-0.341-0.521-0.601-0.608-0.706
					c-0.367-0.437-3.505-3.888-4.101-4.279C165.851,153.745,165.003,152.894,165.049,152.549 M195.245,132.603
					c0.215,0.157,0.279,0.247,0.237,0.313c-0.006,0.007-0.012,0.015-0.018,0.021c-0.004,0.004-0.008,0.007-0.013,0.011
					c-0.077,0.058-0.529,0.476-0.779,0.716l-0.007-1.446c0.01-0.046,0.022-0.091,0.036-0.136
					C194.838,132.343,195.048,132.46,195.245,132.603 M194.031,132.856c0.196-0.217,0.359-0.434,0.387-0.68
					c0.003,0.014,0.007,0.028,0.01,0.042l-0.009,1.648c-0.184,0.07-0.413,0.001-0.503-0.25
					C193.802,133.293,193.802,133.109,194.031,132.856"/>
				<path clip-path="url(#SVGID_26_)" fill="#FFFFFF" d="M196.047,170.462l-20.876,0.204l1.291,2.106l2.822-0.01l-1.172,0.01v0.951
					h1.65c0,0,2.08,1.359,3.013,5.366c0.385,1.655,0.72,4.205,0.899,5.98c0.295,2.917,0.254,5.686-0.326,6.995
					c-0.49,1.107-0.723,1.538-0.833,1.698h-1.463v0.951h-2.009v1.698h16.07v-1.698h-1.937v-0.951h-1.363c0,0-0.646-0.611-1.076-1.63
					c-0.43-1.019-1.148-4.279-1.148-6.861c0-1.971,0.125-4.864,0.431-6.453c0.515-2.681,2.069-4.706,2.383-5.095h1.347l-0.134-1.013
					l1.497-0.005L196.047,170.462z"/>
				<path clip-path="url(#SVGID_26_)" d="M72.048,138.612c-0.974-1.547-5.484-6.187-6.158-6.851
					c-0.567-0.56-0.698-0.806-0.698-0.806s0.398,0.024,0.723-0.118c0.324-0.143,1.321-0.996,1.895-1.494
					c0.573-0.498,2.044-1.09,1.944-1.328c-0.1-0.237-0.922,0.047-1.371,0.355c-0.449,0.309-1.271,0.498-1.72,0.617
					s-0.374-0.664-0.523-1.352c-0.15-0.687-0.997-3.176-1.296-3.722c-0.299-0.545-1.022-1.778-1.197-1.873
					c-0.174-0.095,0.349,1.043,0.548,2.205c0.2,1.162-0.024,3.935-0.174,4.978c-0.149,1.043-0.474,2.086-0.399,2.489
					c0.075,0.403,1.621,1.825,1.995,2.276s2.094,2.916,2.618,3.935c0.523,1.02,0.997,2.489,1.047,2.608
					c0.05,0.118-0.025,0.237-0.499,0.379c-0.474,0.143-2.692,0.498-5.235,0.427c-2.542-0.071-5.135-0.806-5.908-1.043
					c-0.092-0.028-0.188-0.056-0.284-0.082c0.037-0.058,0.06-0.084,0.06-0.084l-1.396-0.403c0,0-0.049,0.062-0.127,0.158
					c-0.045-0.131-0.637-1.899,0.452-1.651c1.508,0.343,1.77-0.095,1.845-0.237s-0.051-0.402-0.112-0.664
					c-0.037-0.16-0.037-0.29,0.112-0.551c0.083-0.145,0.146-0.192,0.217-0.211c0.015,0.003,0.028,0.004,0.039,0.003
					c0.187-0.018,0.256-0.024,0.293-0.136c0.03-0.091,0.006-0.194-0.012-0.243c-0.019-0.049-0.055-0.133-0.087-0.178
					c-0.048-0.066-0.057-0.087-0.112-0.148l0,0c0.048-0.041,0.088-0.085,0.129-0.127c0.006-0.006,0.012-0.012,0.018-0.018
					c0.005-0.005,0.01-0.01,0.015-0.015c0.087-0.083,0.142-0.172,0.177-0.25c0.022-0.046,0.035-0.086,0.042-0.119
					c0.016-0.06,0.018-0.099,0.018-0.099s-0.006,0.001-0.017,0.003c-0.035-0.018-0.277-0.146-0.369-0.234
					c-0.1-0.095-0.05-0.213,0.224-0.356c0.274-0.142,0.43-0.249,0.53-0.486c0.1-0.237-0.149-0.391-0.336-0.586
					c-0.135-0.142-0.517-0.492-0.667-0.776c-0.089-0.169-0.151-0.338-0.093-0.647c0.128,0.078,0.207,0.229,0.293,0.386
					c0.274,0.498,0.648,0.438,0.735,0.45s0.212-0.415,0.237-0.688s0.137-1.742-0.05-1.802c-0.03-0.009-0.286-0.057-0.7-0.097
					c0.05-0.504,0.045-1.099,0.018-1.632c0.07-0.004,0.161-0.021,0.246-0.12c0.168-0.195,0.786-0.853,0.897-1.76
					c0.112-0.907-0.467-2.133-1.047-2.844c-0.58-0.711-1.608-1.227-2.655-1.796c-1.047-0.569-2.917-0.782-2.917-0.782
					s0-1.387-0.411-1.991c-0.412-0.605-1.384-1.316-1.87-1.422c-0.486-0.107-0.711-0.071-0.711-0.071s-0.785-0.676-1.533-0.711
					c-0.748-0.036-1.757-0.178-2.243,0.675c-0.486,0.854-0.449,1.671-0.299,2.134l0.149,0.462c0,0-0.411,0.213-1.496,1.031
					s-1.944,1.956-2.318,3.129s-0.336,1.956-0.262,2.702c0.075,0.747,0.299,1.636,0.673,2.276s0.785,1.351,1.159,1.671
					c0.374,0.32,0.598,0.498,0.598,0.498s-0.536-0.19-0.935-0.475c-0.399-0.284-0.548-0.521-0.623-0.664
					c-0.075-0.142-0.075-0.308-0.075-0.308s-0.1,0.237,0.05,0.664c0.149,0.426,0.922,1.066,1.67,1.351
					c0.748,0.284,2.817,1.351,3.44,1.683c0.623,0.332,1.396,0.616,1.57,0.877c0.175,0.261-0.149,0.83-0.723,1.02
					c-0.573,0.189-1.421-0.047-1.471-0.427c-0.05-0.379,0.162-0.771,1.078-0.54c0,0-0.486-0.622-0.991-0.32s-0.58,0.871-0.542,1.191
					c0,0,0.149,0.533,0.449,0.658l0.299,0.125c0,0,0.038,0.284,0.168,0.462s0.523,0.409,0.954,0.32s0.636-0.267,0.636-0.267
					s0.336,0.071,0.692,0.036c0.355-0.036,1.047-0.142,1.271-0.427c0.172-0.218,0.246-0.322,0.278-0.502
					c0.147,0.735,0.204,2.075,0.17,2.298c-0.036,0.242-0.179,0.451-0.979,0.593c0.007-0.128,0.007-0.19,0.007-0.19
					s-0.748-0.023-0.997-0.118c-0.25-0.095-0.922-0.593-0.922-0.593v0.071c0,0-0.004,0.101-0.014,0.266
					c-0.488-0.25-1.044-0.544-1.694-0.811c-1.646-0.676-2.655,1.245-2.917,2.418s-1.271,4.979-1.87,7.539s-2.094,6.436-2.094,6.436
					s-0.262,0.036-2.954-0.355s-6.731-2.062-6.993-2.134c-0.136-0.037-0.252,0.119-0.305,0.211c0.011-0.026,0.025-0.06,0.043-0.104
					c0.187-0.462,0.23-0.957,0.262-1.529c0.112-2.003,0.144-2.108,0.412-3.094c0.399-1.47,1.01-3.022,1.01-3.022
					s-0.449,0.284-0.935,0.995c-0.486,0.711-0.785,1.067-1.533,2.738s-1.084,2.383-1.384,2.489c-0.299,0.106-1.72-0.854-2.393-1.209
					c-0.673-0.355-0.598,0.142-0.598,0.142s0.411,0.285,0.823,0.462c0.411,0.178,1.383,0.996,1.87,1.422
					c0.486,0.427,1.271,1.422,1.496,1.636s0.935,0.462,3.59,1.778s8.75,3.022,9.274,3.165c0.523,0.143,0.897-0.996,1.496-2.275
					c0.598-1.28,1.346-3.698,1.87-5.263c0.026-0.078,0.053-0.157,0.08-0.236c0.22,0.426,0.456,0.838,0.668,1.184
					c0.523,0.853,1.047,2.157,1.221,2.655c0.053,0.151,0.099,0.303,0.137,0.443c-0.117-0.011-0.187-0.017-0.187-0.017l0.2,1.47
					c0,0,0.224,0.166,0.224,0.285s-0.648,1.588-1.022,2.489c-0.374,0.901-1.321,3.39-1.371,3.532
					c-0.05,0.143-1.247,0.285-2.293,0.285s-6.307,1.067-7.13,1.328s-7.18,2.465-7.254,2.537c-0.026,0.024,0.02,0.063,0.141,0.11
					c-0.428,0.106-0.886,0.244-1.238,0.411c-0.897,0.427-1.795,0.853-1.895,1.185c-0.1,0.332,0.598,2.561,1.047,3.793
					c0.449,1.233,5.435,15.693,6.132,17.59c0.698,1.896,2.044,5.31,2.194,5.737c0.15,0.427,0.499,1.565,0,2.086
					c-0.499,0.522-1.795,0.806-2.194,0.806c-0.398,0-0.648,0.711,0.2,0.854c0.848,0.142,2.194-0.047,3.34-0.521
					c1.147-0.474,1.895-0.806,1.795-1.233s-1.047-2.845-0.797-4.362c0.249-1.517,0.499-1.612,0.797-1.138
					c0.299,0.474,2.244,5.073,2.244,5.073l0.549-0.427c0,0-1.496-5.31-1.995-5.879s-1.247-0.948-1.944-1.09
					c-0.698-0.143-1.944-0.332-2.194-1.043c-0.25-0.711-0.499-3.556-0.449-5.405s-0.299-5.642-0.598-6.827
					c-0.299-1.186-2.493-5.121-2.792-5.832c-0.028-0.068-0.009-0.141,0.048-0.216c0.177,0.78,0.779,1.767,1.498,2.776
					c1.047,1.47,6.083,7.491,8.127,9.672c2.044,2.181,7.329,9.008,8.326,10.194c0.998,1.186,2.992,4.03,3.391,4.694
					c0.399,0.664,0.499,0.948,0.299,1.375c-0.2,0.426-1.646,0.996-1.695,1.28c-0.05,0.285,0.05,0.617,0.947,0.427
					c0.897-0.189,1.944-0.474,2.593-1.28c0.648-0.806,0.847-1.849,0.797-2.086s-0.798-1.138-1.346-2.371s-0.349-2.418-0.149-2.655
					c0.2-0.237,3.54,3.414,3.59,3.556s0.598-0.427,0.598-0.427s-2.892-3.888-3.34-4.504c-0.449-0.617-1.296-0.901-2.493-0.806
					c-1.196,0.095-1.695,0-2.094-0.189c-0.399-0.19-2.593-2.276-4.139-6.164c-1.545-3.888-3.54-8.013-4.238-8.724
					c-0.698-0.711-3.391-3.129-3.889-3.414c-0.228-0.13,0.16-0.24,0.648-0.322c0.085,0.099,0.147,0.184,0.175,0.251
					c0.2,0.474,0.2,0.758,0.2,0.758s3.963,0.427,4.612,0.379c0.648-0.047,8.351-0.285,10.52-0.854s4.188-1.778,4.936-2.418
					c0.748-0.64,0.748-3.058,0.449-4.267c-0.299-1.209-2.019-3.058-2.468-4.054s-1.047-2.56-0.972-3.271
					c0.075-0.711,0.523-1.778,0.523-1.778s-0.136-0.108-0.359-0.256c0.26-0.906,0.663-2.269,0.857-2.684
					c0.299-0.64,1.321-2.252,1.595-2.726c0.274-0.474,0.474-0.925,0.474-0.925s-0.463-0.501-0.891-1.008
					c0.059-0.151,0.203-0.498,0.442-0.936c0.324-0.593,0.897-1.067,1.72-1.232c0.823-0.166,5.584-1.233,7.18-1.494
					c1.596-0.261,5.435-1.873,5.684-2.157C73.644,141.979,73.033,140.177,72.048,138.612 M50.559,131.892
					c-0.006-0.005-0.012-0.011-0.018-0.016c0.039,0.029,0.077,0.064,0.112,0.105c0.001,0.002,0.003,0.004,0.004,0.005
					C50.626,131.956,50.594,131.925,50.559,131.892"/>
				<path clip-path="url(#SVGID_26_)" fill="#FFFFFF" d="M124.886,171.559l-21.999,0.208l1.361,2.148l2.974-0.01l-1.235,0.01v0.97
					h1.739c0,0,2.192,1.387,3.175,5.476c0.405,1.688,0.759,4.291,0.948,6.102c0.311,2.977,0.268,5.802-0.344,7.138
					c-0.517,1.13-0.762,1.569-0.878,1.733h-1.541v0.97h-2.117v1.733h16.934v-1.733h-2.042v-0.97h-1.436c0,0-0.681-0.624-1.134-1.664
					c-0.454-1.04-1.209-4.367-1.209-7.001c0-2.011,0.132-4.964,0.454-6.585c0.542-2.736,2.18-4.802,2.511-5.199h1.42l-0.141-1.034
					l1.578-0.006L124.886,171.559z"/>
				<path clip-path="url(#SVGID_26_)" fill="#FFFFFF" d="M99.188,150.796l-29.714,0.355l1.838,3.672l4.017-0.018l-1.668,0.018v1.658
					h2.349c0,0,2.961,2.369,4.289,9.358c0.548,2.885,1.025,7.332,1.281,10.427c0.42,5.086,0.361,9.915-0.464,12.197
					c-0.698,1.931-1.029,2.683-1.186,2.961h-2.082v1.659h-2.859v2.961H97.86v-2.961h-2.757v-1.659h-1.94
					c0,0-0.918-1.066-1.531-2.843s-1.634-7.462-1.634-11.964c0-3.438,0.178-8.483,0.612-11.253c0.733-4.675,2.945-8.207,3.392-8.884
					h1.918l-0.19-1.767l2.131-0.009L99.188,150.796z"/>
				<path clip-path="url(#SVGID_26_)" fill="#FFFFFF" d="M127.688,188.115c0,0-0.985,1.344-1.361,2.132
					c-0.375,0.788-0.375,1.53-0.375,1.53l2.018,1.576c0,0,0.281-0.788,0.516-0.603s0.938,2.549,1.971,3.198
					c1.032,0.649,4.036,1.668,5.209,1.715s1.596-0.834,1.596-0.834s-1.502-0.186-2.91-2.364s-1.267-4.171-1.267-4.171
					L127.688,188.115z"/>
				<path clip-path="url(#SVGID_26_)" fill="#FFFFFF" d="M129.659,196.179c0,0-0.047,1.205,0.141,1.854
					c0.188,0.648,0.469,1.297,0.469,1.297l2.769,0.649l0.281-0.603c0,0,1.877,0.417,2.535,0.834
					c0.657,0.417,3.285,0.927,5.631-0.186c2.346-1.112,2.44-1.483,2.394-1.854c-0.047-0.371-0.329-0.927-0.329-0.927
					s-1.08,0-2.628-0.093c-1.549-0.093-2.863-0.185-3.145-0.093c-0.282,0.093-2.159-0.648-2.394-0.927
					C135.15,195.855,129.706,195.854,129.659,196.179"/>
				<path clip-path="url(#SVGID_26_)" fill="#FFFFFF" d="M116.519,157.017c0,0,1.173,0.603,1.501,0.973s0.516,0.278,0.798,0.186
					s0.422,0.371,0.422,0.603s0.422,0.093,0.751-0.093s1.361,0.139,2.393,0.186c1.033,0.046,1.361,0.185,1.924,0.371
					s3.614,0.371,4.317,0.231c0.704-0.139,6.805,0.974,8.213,1.298c1.408,0.325,2.44,0.695,3.379,0.742s2.206,0.556,2.722,1.159
					c0.517,0.603,0.892,3.291,0.61,4.496c0,0-2.675,6.118-3.426,7.508c-0.751,1.391-6.711,16.407-6.711,16.407
					s-5.115-0.834-5.632-1.298c-0.516-0.463-1.314-1.251-1.314-1.251s1.22-3.105,1.689-4.449c0.469-1.344,4.74-8.991,5.538-10.335
					s2.065-4.403,1.831-5.052c-0.235-0.649-1.971-2.317-2.722-2.549c-0.751-0.232-11.075-1.298-12.155-1.576
					c-1.079-0.278-4.177-0.881-4.599-1.391s-1.643-2.317-2.112-3.198c-0.469-0.881-0.704-1.251-0.704-1.251
					S116.237,157.063,116.519,157.017"/>
				<path clip-path="url(#SVGID_26_)" fill="#FFFFFF" d="M109.292,137.412c0,0-1.22-0.231-1.548-0.486
					c-0.329-0.255-5.914-2.155-6.43-2.086c-0.516,0.07-1.196-0.046-1.548,0.371c-0.352,0.417-0.868,1.344-1.009,1.367
					c-0.141,0.023-3.097,0.672-3.895,0.579s-2.839,0.579-4.106,1.391c-1.267,0.811-2.651,1.668-3.238,1.97
					c-0.586,0.301-3.027,1.089-3.942,1.738s-2.722,1.854-3.05,2.41c-0.329,0.556-0.681,1.112-0.774,1.854s-0.516,2.202,0.094,2.503
					c0.61,0.301,2.933,1.552,3.966,2.039c1.032,0.487,2.862,0.742,4.247,1.02c1.384,0.278,4.388,0.556,5.021,0.394
					c0.633-0.162,0.704-0.348,0.985-0.231c0.282,0.116,2.534,0.903,2.534,0.903s0.657-0.347,0.892-1.182
					c0.235-0.834,0.774-1.854,0.938-1.993c0.165-0.139,0-0.255,0-0.255l-2.558-1.066c0,0-0.446-0.509-0.586-0.625
					c-0.141-0.116-0.985-0.463-2.182-0.579c-1.197-0.116-2.839-0.255-3.027-0.278c-0.188-0.023-0.798-0.116-1.15-0.186
					c-0.352-0.069,0.234,0,0.516-0.116s0.047-0.069,0.352-0.255c0.305-0.185,1.783-0.069,2.604-0.348
					c0.821-0.278,1.948-0.649,2.511-0.208s2.3,2.943,2.816,3.198c0.516,0.255,1.103,0.44,0.845,0.788
					c-0.258,0.348-0.235,1.923,0.117,3.313c0.352,1.391,2.746,5.944,3.133,6.639s0.915,1.043,0.739,2.155
					c-0.176,1.112-0.528,2.572,0.282,2.294c0.81-0.278,0.985-0.278,0.985-0.278s2.992-2.711,4.259-3.65
					c1.268-0.938,2.253-1.634,3.485-2.155s2.358-0.973,3.097-1.286c0.739-0.312,1.725-0.452,1.654-0.729
					c-0.07-0.278-0.598-0.904-0.985-1.217s-0.563-0.765-0.387-0.904c0.176-0.139,2.745,0.869,3.344,0.765
					c0.598-0.104,1.83-0.834,2.815-1.529c0.986-0.695,2.746-1.46,3.837-2.19c1.091-0.73,2.499-1.703,2.604-2.19
					c0.105-0.486-0.07-0.869-0.07-0.869l2.182-2.086c0,0-0.493-1.042-1.302-1.564c-0.81-0.521-0.951-1.217-0.951-1.217l-2.534,1.564
					c0,0-0.563-0.313-1.232,0.139c-0.668,0.452-2.921,2.294-3.273,2.433c-0.352,0.139-0.634,0.243-0.704,0.625
					s-0.282,0.695-0.422,0.487s-0.528-0.452-0.739-0.174c-0.211,0.278-0.668,0.174-0.633-0.174s-0.704-0.765-1.232-1.043
					c-0.528-0.278-0.563-0.452-0.634-0.695c-0.07-0.243-1.548-2.746-1.865-3.337c-0.317-0.591-2.252-3.545-2.429-4.032
					C111.533,138.652,110.254,137.493,109.292,137.412"/>
				<path clip-path="url(#SVGID_26_)" fill="#FFFFFF" d="M111.568,125.443c0,0-0.282,1.147-0.211,1.877s-0.035,1.042-0.246,1.355
					c-0.211,0.313-0.282,0.661-0.176,1.078c0.106,0.417,0.657,1.819,0.798,2.12c0.141,0.302-0.094,0.649-0.352,0.765
					c-0.258,0.116-0.493,0.069-0.774,0.046c-0.281-0.023-0.281,0.116-0.328,0.394c-0.047,0.278,0.188,0.533,0.188,0.533
					s-0.258,0.371-0.399,0.486c-0.141,0.116-0.422,0.093-0.422,0.093s0.352,0.186,0.352,0.301c0,0.116-0.047,0.464-0.047,0.464
					s-0.375,0.092-0.469,0.208c-0.094,0.116-0.094,0.371,0.023,0.533s-0.165,0.811-0.587,0.997
					c-0.422,0.185-1.291-0.163-1.666-0.208c-0.375-0.046-0.516,0.093-0.704,0.51c-0.188,0.417-0.235,0.695,0,0.834
					c0.234,0.139,0.704,0.603,0.704,0.603s-0.211,1.066-0.234,1.53s0,1.112,0,1.182s-0.845-0.927-1.126-1.066
					c-0.281-0.139-1.83-0.208-2.159-0.232c-0.329-0.023-0.633-0.069-0.774-0.162c-0.141-0.093-1.291-0.718-1.76-1.251
					c-0.469-0.533-0.938-1.205-0.798-1.367c0.141-0.162,0.657-0.788,1.033-1.622c0.375-0.834,1.408-3.036,1.337-3.708
					s-0.329-1.437-0.399-1.877c-0.07-0.44,0.188-1.089,0.469-1.298s0.681-0.186,1.009,0.093c0.329,0.278,0.399,0.463,0.751,0.394
					c0.352-0.07,1.924-1.321,2.651-1.97c0.728-0.649,1.103-0.649,1.877-0.834C109.902,126.058,111.568,125.443,111.568,125.443"/>
				<path clip-path="url(#SVGID_26_)" fill="#FFFFFF" d="M111.403,126.822c0,0,1.479-0.881,2.183-0.371
					c0.704,0.51,0.234,1.738,0.234,1.738s0.516-1.182,0.235-1.691c-0.282-0.51-1.08-0.463-1.08-0.463s0.821-0.139,1.103,0.232
					c0.281,0.371,0.281,0.533,0.281,0.533s0.071-0.672-0.516-0.927c-0.586-0.255-1.197-0.139-1.596,0.116s0.094-0.371,0.563-0.603
					c0.469-0.231,0.821-0.486,1.244-0.231c0.422,0.254,0.352,0.718,0.352,0.718s0.234-0.834-0.61-1.02
					c-0.845-0.186-1.291,0.255-1.525,0.51c-0.234,0.255-0.352,0.486-0.352,0.486s0.07-1.135,0.211-1.553
					c0.141-0.417-0.469-0.765-1.009-1.182c-0.54-0.417-1.502-0.718-1.784-1.135c-0.281-0.417-0.657-0.394-0.657-0.394
					s0.234,0.069,0.422,0.371c0.188,0.301,0.493,0.649,0.493,0.649s-1.244-0.301-1.666-0.625c-0.422-0.325-1.689-0.556-2.042-0.672
					c-0.352-0.116-1.173,0.07-1.173,0.07s0.751-0.023,1.291,0.324c0.54,0.348,0.681,0.533,0.681,0.533s-1.384-0.417-1.713-0.487
					c-0.329-0.069-0.962-0.116-1.596,0c-0.633,0.116-0.798,0.208-0.798,0.208s0.962-0.231,1.643-0.069l0.681,0.162
					c0,0-1.408,0-1.807,0.023c-0.399,0.023-1.525,0.44-2.065,0.742c-0.54,0.301-0.962,0.695-1.244,1.066
					c-0.282,0.371-0.704,1.668-0.704,1.668s0.235-0.695,0.61-0.95c0.375-0.255-0.165,0.579-0.282,1.158
					c-0.117,0.58-0.117,1.113-0.117,1.692s0.188,1.274,0.188,1.274s-0.047-0.695,0.023-0.927s0,0.579,0.634,1.738
					c0.633,1.159,0.938,1.692,1.079,2.039c0.141,0.348,0.211,0.742,0.023,1.043c-0.188,0.301-0.563,0.533-0.68,0.487
					c-0.118-0.046-0.375-0.186-0.375-0.186s0.329,0.371,0.633,0.394c0.305,0.023,0.634-0.208,0.634-0.208s-0.165,0.348-0.258,0.44
					c-0.094,0.093-0.211,0.209-0.446,0.232c-0.234,0.023,0.282,0.07,0.704-0.069s0.845-0.51,1.079-0.881
					c0.235-0.371,0.399-0.788,0.352-1.089s-0.352-1.715-0.352-2.178c0-0.464,0.211-0.788,0.516-0.95
					c0.305-0.162,0.657,0.023,0.868,0.231c0.211,0.209,0.305,0.163,0.446,0.44c0.141,0.278,0.305,0.718,0.305,0.718
					s0.165-0.486,0.751-1.042s1.197-0.857,1.643-1.205s0.751-0.579,0.798-0.649c0.047-0.069-0.07,0.255-0.329,0.58
					c-0.258,0.324-1.15,0.95-1.431,1.367c-0.282,0.417-0.422,0.788-0.422,0.788s0.305-0.579,0.915-1.089
					c0.61-0.51,1.22-0.788,1.783-1.413c0.563-0.626,1.033-0.881,1.455-1.066C110.254,126.081,111.403,126.822,111.403,126.822"/>
				<path clip-path="url(#SVGID_26_)" fill="#FFFFFF" d="M108.881,129.21c0,0-0.053,0.625,0.264,0.504s0.387-0.697,0.387-0.697
					S108.916,129.162,108.881,129.21"/>
				<path clip-path="url(#SVGID_26_)" fill="#FFFFFF" d="M109.72,132.169c0,0-0.088,0.348,0.405,0.331
					c0.493-0.018,0.933,0.104,0.933,0.104s-0.634-0.035-0.862,0.018c-0.229,0.052-0.44-0.035-0.476-0.104
					C109.685,132.447,109.72,132.169,109.72,132.169"/>
				<path clip-path="url(#SVGID_26_)" fill="#FFFFFF" d="M108.277,133.994c0,0,0.739,0.069,1.056,0
					c0.316-0.069,0.651-0.226,0.809-0.278l0.159-0.052c0,0-0.176,0.295-0.37,0.365c-0.194,0.069-0.475,0.104-0.739,0.087
					S108.277,133.994,108.277,133.994"/>
				<path clip-path="url(#SVGID_26_)" fill="#FFFFFF" d="M98.592,136.879c0,0-0.446,0.278-0.352,0.695s0.399,2.642,0.446,3.522
					s0.07,2.155,0.07,2.155s1.009-0.741,1.643-1.39c0.634-0.649,2.229-1.715,2.628-1.761c0.399-0.046,2.582,0.208,2.582,0.208
					s-2.487-0.255-2.863,0.023c-0.375,0.278-2.464,1.9-2.839,2.317c-0.375,0.417-1.314,1.112-1.314,1.112s-0.211-1.229-0.211-1.854
					s0.047-1.251-0.094-2.225c-0.141-0.973-0.282-2.202-0.188-2.457C98.193,136.972,98.592,136.879,98.592,136.879"/>
				<path clip-path="url(#SVGID_26_)" fill="#FFFFFF" d="M107.156,141.027c0,0,0.915-2.109,1.385-2.109
					c0.469,0,1.384,0.139,1.384,0.139s-0.657-1.066-1.056-1.344c-0.399-0.278-0.586-0.44-0.586-0.44s0.54,0.301,0.821,0.487
					s1.08,1.506,1.08,1.506s-0.798-0.093-1.15-0.116c-0.352-0.023-0.378-0.057-0.61,0.139
					C108.095,139.567,107.156,141.027,107.156,141.027"/>
				<path clip-path="url(#SVGID_26_)" fill="#FFFFFF" d="M107.767,143.089c0,0,1.032,2.225,1.244,2.874
					c0.211,0.649,1.267,3.963,1.572,5.793c0.305,1.831,0.728,3.383,0.845,3.916c0.118,0.533,0.704,0.857,0.962,1.066
					c0.258,0.209,0.258-0.324,0.258-0.603c0-0.278-0.633-1.923-0.633-2.502c0-0.579-2.159-7.555-2.651-8.481
					c-0.493-0.927-1.126-2.41-1.314-2.387C107.86,142.788,107.767,143.089,107.767,143.089"/>
				<path clip-path="url(#SVGID_26_)" fill="#FFFFFF" d="M97.677,149.856c0,0,2.229,0.463,2.957,0.718
					c0.728,0.255,2.299,1.275,2.839,1.483c0.54,0.208,1.173,0.348,1.173,0.348s-0.07,0.371-0.352,0.556
					c-0.282,0.185-0.962,0.162-1.291,0.092c-0.328-0.069-1.056-0.347-1.056-0.347s1.525,1.529,1.971,2.085s1.056,1.437,1.455,2.062
					c0.399,0.625,0.821,0.927,0.704,1.158c-0.118,0.232-0.352,0.395-0.61,0.139c-0.258-0.255-1.267-1.599-1.548-1.923
					c-0.282-0.324-1.408-1.344-1.502-1.228s1.103,1.46,1.455,1.877c0.352,0.417,1.291,1.599,1.338,1.808s-0.118,0.44-0.375,0.487
					c-0.258,0.046-0.399-0.047-0.399-0.047s0.094,0.139-0.258,0.302c-0.352,0.162-0.516-0.023-0.633-0.093
					c-0.118-0.07-1.549-1.298-1.971-1.622c-0.422-0.325-1.361-1.367-1.337-1.136c0.023,0.232,0.516,1.344,0.751,1.668
					c0.234,0.325,0.962,1.298,0.962,1.414c0,0.116-0.07,0.278-0.54,0.116c-0.47-0.163-1.408-1.414-1.572-1.762
					c-0.164-0.347-1.15-2.131-1.689-3.105c-0.54-0.973-1.056-1.97-1.361-2.317C96.48,152.243,97.325,149.926,97.677,149.856"/>
				<path clip-path="url(#SVGID_26_)" fill="#FFFFFF" d="M127.289,143.669c0,0,1.033-1.089,1.455-1.344s1.149-0.463,1.736-0.741
					c0.586-0.278,0.633-0.278,1.126-0.51c0.493-0.232,1.103-0.649,1.361-0.881c0.258-0.231,0.493-0.278,0.563,0
					c0.07,0.278-0.211,0.857-0.446,1.089c-0.235,0.231-1.384,0.95-1.666,1.135s0.352,0.44,0.774,0.672
					c0.422,0.232,1.431,0.719,1.807,0.556c0.375-0.162,0.868-0.556,1.525-1.089c0.657-0.533,0.657-0.487,0.938-0.811
					c0.282-0.325,0.586-0.487,0.751-0.348c0.164,0.139,0.305-0.093,0.563-0.116c0.258-0.023,0.375,0.139,0.422,0.278
					s-0.234,0.765-0.493,1.136c-0.258,0.371,0.188,0.185,0.469-0.046c0.282-0.232,0.469-0.255,0.681-0.186
					c0.211,0.069-0.352,0.88-0.704,1.228s-2.91,2.155-3.262,2.294c-0.352,0.139-3.355-0.093-3.895-0.116
					c-0.54-0.023-1.455-0.255-1.76-0.046C128.932,146.033,127.289,143.669,127.289,143.669"/>
				<path clip-path="url(#SVGID_26_)" fill="#FFFFFF" d="M103.332,163.922c0,0,1.08,1.344,1.314,1.205
					c0.235-0.139,3.801-2.827,4.881-3.708c1.079-0.88,4.036-2.781,5.115-3.151c1.08-0.371,2.44-0.881,2.3-1.159
					c-0.141-0.278-0.986-0.695-0.986-0.695s-7.415,2.317-9.292,3.986C104.787,162.068,103.332,163.922,103.332,163.922"/>
				<path clip-path="url(#SVGID_26_)" fill="#FFFFFF" d="M104.458,164.617c0,0,0.563,0.464,1.173,1.483
					c0.61,1.02,3.989,5.747,5.396,6.257c1.408,0.51,9.058,1.344,11.123,1.344s6.289,0.51,6.664,0.973s0.141,0.695,0.798,0.834
					c0.657,0.139-0.657,0.093,0.188,0.463s1.971,0.371,1.22,0.603s-1.549-0.139-1.643,0.649c-0.094,0.788-0.282,3.198-0.375,4.588
					c-0.094,1.391-0.281,10.243-0.094,11.494s0.516,3.059,0.516,3.059s2.487,1.205,4.036,0.974c1.548-0.232,2.299-1.02,2.299-1.02
					s-0.328-1.02-0.375-1.9c-0.047-0.881-0.375-1.483-0.469-2.457c-0.094-0.973,0.422-8.11,0.751-9.269s1.314-8.203,1.408-9.223
					c0.094-1.02,0.422-2.734,0.47-3.105c0.047-0.371-1.502-2.688-2.3-3.476c-0.798-0.788-2.159-1.344-3.003-1.437
					s-11.122-1.715-11.873-1.854c-0.751-0.139-2.675-0.88-3.379-0.556c-0.704,0.325-0.094,0.093-0.375-0.371
					c-0.282-0.463-0.422-0.834-0.798-0.742s-0.047-0.278-0.188-0.695c-0.141-0.417-1.267-1.993-1.455-2.364
					s-0.282-0.649-0.282-0.649L104.458,164.617z"/>
				<path clip-path="url(#SVGID_26_)" fill="#FFFFFF" d="M104.223,130.136c0,0-0.469-1.298-0.774-1.251
					c-0.305,0.046-0.563,0.162-0.61,0.603s0.188-0.093,0.329-0.278c0.141-0.186,0.446-0.093,0.586,0.463
					c0.141,0.556,0.07,0.625-0.164,0.695c-0.235,0.069-0.141,0.394-0.141,0.394s0.023-0.162,0.258-0.278
					C103.941,130.368,104.293,130.391,104.223,130.136"/>
				<path clip-path="url(#SVGID_26_)" fill="#FFFFFF" d="M102.839,131.271c0,0,0.422,0.718,0.868,0.695
					c0.446-0.023,0.751-0.579,0.751-0.579s-0.375,0.742-0.634,0.834c-0.258,0.093-0.563-0.278-0.68-0.162
					c-0.118,0.116-0.422,0.625-0.422,0.625s0.281-0.556,0.281-0.811C103.003,131.619,102.839,131.271,102.839,131.271"/>
				<path clip-path="url(#SVGID_26_)" fill="#FFFFFF" d="M103.355,131.086c0,0,0.329,0.301,0.657,0.046
					c0.328-0.255,0.258-0.51-0.023-0.278C103.707,131.086,103.355,131.086,103.355,131.086"/>
				<path clip-path="url(#SVGID_26_)" fill="#FFFFFF" d="M103.73,132.917c0,0-0.681,1.576,0.61,2.225
					c1.291,0.649,2.582,0.904,3.262,1.136c0.681,0.231,1.173,0.347,1.244,0.301c0.07-0.047-0.047,0.255-0.798,0.069
					s-1.924-0.533-2.463-0.603c-0.54-0.069-1.643-0.603-2.018-0.95C103.191,134.747,103.308,132.801,103.73,132.917"/>
				<path clip-path="url(#SVGID_26_)" fill="#FFFFFF" d="M109.174,134.637c0,0,0.827,0.278,0.581,0.295
					c-0.246,0.018-0.439,0.139-0.439,0.139S109.016,134.654,109.174,134.637"/>
				<path clip-path="url(#SVGID_26_)" fill="#FFFFFF" d="M107.942,128.259c0,0,1.074-0.4,1.391-0.417
					c0.316-0.018,0.651,0.087,0.598,0.208s-0.229,0.452-0.299,0.539s0,0.208,0,0.208s-0.088-0.052-0.334-0.069
					c-0.246-0.018-1.073,0.261-1.302,0.4c-0.229,0.139,0.211-0.278,0.475-0.452C108.734,128.502,107.59,128.398,107.942,128.259"/>
				<path clip-path="url(#SVGID_26_)" fill="#FFFFFF" d="M106.5,129.023c0,0,1.267-0.921,1.953-1.199
					c0.687-0.278,1.743-0.295,1.743-0.295s0.105,0.243-0.088,0.469c-0.193,0.226-0.246,0.348-0.246,0.348s0.088-0.156-0.37-0.156
					s-0.37-0.122-0.334-0.191s-0.088,0.035-0.334,0.104c-0.246,0.069-1.003,0.295-1.425,0.521
					C106.975,128.85,106.447,129.076,106.5,129.023"/>
				<path clip-path="url(#SVGID_26_)" fill="#FFFFFF" d="M106.335,137.25c0,0-0.563,0.695-0.845,1.367
					c-0.281,0.672-0.375,1.089,0.094,1.205c0.469,0.116,0.586,0.278,0.727,0.44c0.141,0.163,0.61,0.927,0.61,0.556
					c0-0.371-0.07-1.042,0.047-1.46c0.117-0.417,0.188-0.88,0.117-0.973s-0.516-0.347-0.633-0.463
					C106.335,137.806,106.335,137.25,106.335,137.25"/>
				<path clip-path="url(#SVGID_26_)" fill="#FFFFFF" d="M111.392,126.173c0,0-0.668-1.842-2.006-2.155
					c-1.338-0.313-2.71-0.313-3.133-0.487s-2.64-0.904-3.449-0.73s-2.182,0.521-2.499,0.869s-0.634,0.625-0.634,0.625
					s0.634-0.347,0.774-0.417c0.141-0.069-0.07,0.382-0.246,0.834c-0.176,0.452-0.528,1.182-0.563,1.495s-0.141,0.904-0.141,0.904
					l0.317-0.452c0,0,0.07,0.834,0.07,1.078s0.317,1.355,0.774,2.121c0.458,0.765,0.915,1.495,0.915,1.842
					c0,0.347-0.07,0.869-0.176,1.008c-0.106,0.139,0.176-0.208,0.316-0.382c0.141-0.174,0.247,0.348,0.106,0.591
					c-0.141,0.243-0.317,0.521-0.317,0.521s0.598-0.556,0.739-0.765c0.141-0.208,0.528-0.452,0.211-2.19
					c-0.317-1.738,0.211-1.947,0.528-2.155c0.317-0.208,0.774-0.069,1.056,0.243c0.282,0.313,0.633,0.939,0.633,0.939
					s0.422-0.452,0.88-0.939c0.458-0.486,1.056-0.729,1.514-1.147c0.458-0.417,0.985-0.938,0.985-0.938s0.176,0.452,0,0.73
					c-0.176,0.278-0.246,0.487-0.246,0.487s0.317-0.313,0.704-0.834c0.387-0.521,0.95-0.695,1.443-0.799
					c0.493-0.104,1.373,0.452,1.373,0.452S111.356,126.382,111.392,126.173"/>
				<path clip-path="url(#SVGID_26_)" fill="#FFFFFF" d="M106.71,141.815c0,0,0.469-0.95,0.821-0.718
					c0.352,0.231,1.314,1.529,1.291,1.668s-0.211,0.186-0.446,0.301c-0.234,0.116-0.281,0.556-0.422,0.625
					C107.813,143.762,106.593,141.978,106.71,141.815"/>
				<path clip-path="url(#SVGID_26_)" fill="#FFFFFF" d="M108.447,142.672c0,0-0.399,0.301-0.469,0.533
					c-0.07,0.232,0.892,1.623,1.291,2.688s2.042,5.654,2.182,6.952c0.141,1.297,0.305,1.668,0.563,2.132
					c0.258,0.463,1.15,1.274,1.103,1.112c-0.047-0.163-0.375-1.321-0.446-1.761c-0.07-0.44-0.61-3.198-0.868-3.847
					c-0.258-0.649-2.206-5.562-2.44-6.095C109.127,143.854,108.447,142.672,108.447,142.672"/>
				<path clip-path="url(#SVGID_26_)" fill="#FFFFFF" d="M100.938,155.603c0,0,0.986,1.02,1.338,1.39
					c0.352,0.371,1.291,1.344,1.525,1.599c0.235,0.255,0.821,0.718,0.587,0.394c-0.235-0.324-1.15-1.274-1.338-1.529
					c-0.188-0.255-0.938-1.089-1.196-1.414c-0.258-0.325-0.329-0.649-0.469-0.58C101.243,155.534,100.938,155.603,100.938,155.603"
					/>
				<path clip-path="url(#SVGID_26_)" fill="#FFFFFF" d="M97.301,150.574c0,0-0.493,1.576-0.422,1.854
					c0.07,0.278,0.657,1.182,0.915,1.576c0.258,0.394,1.337,2.364,1.478,2.688c0.141,0.325,0.798,1.715,0.751,1.391
					s-0.446-1.251-0.422-1.506s-0.094-0.649-0.234-0.811c-0.141-0.162-1.713-3.012-1.807-3.406
					C97.465,151.965,97.512,150.436,97.301,150.574"/>
				<path clip-path="url(#SVGID_26_)" fill="#FFFFFF" d="M131.137,142.58c0,0-1.009,1.02-0.329,1.298
					c0.681,0.278,3.168,0.997,3.731,0.788c0.563-0.208,2.933-1.668,2.628-1.529c-0.305,0.139-1.009,0.487-1.056,0.208
					c-0.047-0.278,0.938-1.46,0.938-1.46s-1.267,1.414-1.408,1.298s-0.352-0.301-0.657-0.069c-0.305,0.231-0.985,0.603-1.126,0.649
					c-0.141,0.046-0.892-0.093-1.22-0.301C132.311,143.251,131.137,142.58,131.137,142.58"/>
				<path clip-path="url(#SVGID_26_)" fill="#FFFFFF" d="M110.934,140.054c0,0-0.281,2.317,0.469,3.801
					c0.751,1.483,1.784,3.8,1.924,5.005c0.141,1.205,0.985,4.773,1.22,5.283c0.234,0.51,0.375,0.834,0.375,0.834
					s-0.235-1.02-0.422-2.271c-0.188-1.251-1.126-5.145-1.314-5.933c-0.188-0.788-1.22-2.549-1.455-2.966
					C111.498,143.391,110.934,140.054,110.934,140.054"/>
				<path clip-path="url(#SVGID_26_)" fill="#FFFFFF" d="M115.486,145.754c0,0,0.399,0.834,0.352,1.089s-0.751,1.483-0.141,0.996
					c0.61-0.486,0.845-0.579,1.385-0.185c0.54,0.394,0.54,0.625,0.563,0.834s-0.188,3.105,0.165,1.9
					c0.352-1.205,0.657-1.854,0.962-1.761s1.056,2.479,1.079,1.39c0.024-1.089-0.164-1.993,0.071-2.155
					c0.234-0.162,0.985-0.58,0.985-0.58s-0.845,0.487-0.892,0.857c-0.047,0.371,0.07,2.966-0.07,3.013
					c-0.141,0.046-1.009-2.085-1.173-2.248c-0.164-0.162-0.845,2.202-1.08,2.294c-0.234,0.093-0.305-2.433-0.305-2.781
					s-0.563-0.973-0.821-0.857c-0.258,0.116-1.244,1.182-1.643,0.927s0.68-1.414,0.704-1.738
					C115.65,146.426,115.486,145.754,115.486,145.754"/>
				<path clip-path="url(#SVGID_26_)" fill="#FFFFFF" d="M124.379,144.967c0,0,0.728,0.069,0.892,0.648
					c0.165,0.58,0.165,1.274,0.681,1.437c0.516,0.162,1.314,1.135,1.408,1.46c0.094,0.324-0.352,1.089-0.704,1.344
					c-0.352,0.255-2.042,1.854-2.839,1.854s-1.033-0.208-1.83,0.625c-0.798,0.834-2.065,1.692-2.558,1.947
					c-0.493,0.255,0.47-0.51,0.986-0.904s1.431-1.367,1.83-1.738c0.399-0.371,1.22-0.394,1.948-0.719
					c0.727-0.324,1.643-0.973,2.065-1.46c0.422-0.486,0.305-1.39,0.07-1.552c-0.235-0.163-1.384-0.046-1.408-0.463
					c-0.023-0.417,0.118-1.646-0.141-1.947C124.521,145.198,124.286,144.92,124.379,144.967"/>
				<path clip-path="url(#SVGID_26_)" fill="#FFFFFF" d="M129.002,146.426l-1.666,1.553c0,0-0.61-0.649-0.704-0.742
					c-0.094-0.093,0.68-0.51,1.22-0.603C128.392,146.542,129.002,146.426,129.002,146.426"/>
				<path clip-path="url(#SVGID_26_)" fill="#FFFFFF" d="M88.596,146.82c0,0-1.971-0.88-3.379-1.112
					c-1.408-0.231-3.332-0.231-2.018-0.556s4.412,1.159,3.989,0.325c-0.422-0.834-1.549-2.827-0.657-1.854s2.253,2.966,2.44,1.854
					c0.188-1.112,1.033-0.046,2.159-0.417c1.126-0.371,2.44-0.185,2.44-0.185s-1.22,0.046-1.689,0.324s-1.736,0.186-2.065,0.186
					s-0.422,0.231-0.563,0.556c-0.141,0.325-0.704,0.417-0.938,0.278c-0.235-0.139-1.126-1.668-0.892-1.02
					c0.235,0.649,0,0.788-0.141,0.788S88.596,146.82,88.596,146.82"/>
				<path clip-path="url(#SVGID_26_)" fill="#FFFFFF" d="M81.228,149.184c0.188-0.093,3.097,0.927,3.895,1.297
					c0.798,0.371,4.74,1.066,5.538,1.066s2.3,0.231,2.722-0.139s-0.329-0.881,0.563-1.298s1.032-0.649,0.938-1.066
					s0.563-0.278,0.563-0.278s-0.375,0.046-0.282,0.463s0.094,0.51-0.469,0.834c-0.563,0.324-0.704,0.371-0.563,1.066
					c0.141,0.695-0.516,0.834-0.892,1.02c-0.375,0.185-5.491-0.603-6.147-0.557c-0.657,0.046-2.112-0.278-2.347-0.602
					C84.513,150.667,81.228,149.184,81.228,149.184"/>
				<path clip-path="url(#SVGID_26_)" fill="#FFFFFF" d="M94.415,151.779c0,0,1.267,0.649,1.643,0.324
					c0.375-0.324,0.329-0.695,0.469-0.88c0.141-0.185,0.329-0.556,0.329-0.556s-0.375,1.112-0.375,1.622s0.047,0.695,0.047,0.695
					s-1.783-0.742-1.971-0.834C94.368,152.058,94.415,151.779,94.415,151.779"/>
				<path clip-path="url(#SVGID_26_)" fill="#FFFFFF" d="M105.303,164.386c0,0,2.487-2.781,3.52-3.569
					c1.033-0.788,5.538-2.364,4.881-1.947c-0.657,0.417-4.036,2.04-4.881,2.781C107.978,162.393,105.068,164.756,105.303,164.386"/>
				<path clip-path="url(#SVGID_26_)" fill="#FFFFFF" d="M115.299,161.976c0,0-4.083,1.02-2.957,1.622
					c1.126,0.603,1.783,0.139,1.783,0.139s-1.408-0.046-0.704-0.649S115.299,161.976,115.299,161.976"/>
				<path clip-path="url(#SVGID_26_)" fill="#FFFFFF" d="M116.425,163.737c0,0-1.501,1.854-1.83,1.39
					c-0.329-0.463,0.047-0.278,0.375-0.51C115.299,164.386,116.425,163.737,116.425,163.737"/>
				<path clip-path="url(#SVGID_26_)" fill="#FFFFFF" d="M110.324,171.245c0,0,2.159,0.927,6.992,1.483
					c4.834,0.556,10.653,1.112,11.357,1.344c0.704,0.232,0.422,0.881,0.985,0.834c0.563-0.046,3.848-0.232,2.628,0.093
					c-1.22,0.324-2.159,0.463-0.938,0.788c1.22,0.325,4.317,1.205,2.628,1.391c-1.689,0.185-3.473-0.046-3.661,0.324
					c-0.188,0.371-0.375,1.298-0.375,1.298s0.047-1.205,1.549-1.159c1.502,0.046,4.412-0.51,3.989-1.02s-4.177-0.973-3.238-1.298
					c0.938-0.324,1.502-0.834,1.079-0.973c-0.422-0.139-3.191,0.324-3.613-0.046c-0.422-0.371-0.61-0.695-1.83-1.02
					c-1.22-0.325-14.642-1.808-14.971-1.808S110.23,171.105,110.324,171.245"/>
				<path clip-path="url(#SVGID_26_)" fill="#FFFFFF" d="M129.706,179.448c0,0-0.375,11.123-0.422,12.42
					c-0.047,1.298,0.329,3.337,0.375,3.662c0.047,0.324,1.455,0.927,2.487,1.251c1.032,0.324,2.534-0.325,2.534-0.325
					s-1.22-0.463-1.971-0.278c-0.751,0.185-1.924-0.695-2.159-0.881c-0.235-0.185-0.516-1.205-0.329-3.012
					c0.188-1.808,0.235-2.549,0.047-3.291C130.082,188.254,129.706,179.448,129.706,179.448"/>
				<path clip-path="url(#SVGID_26_)" fill="#FFFFFF" d="M118.396,158.731c0,0-2.581,2.178-1.549,1.993
					C117.88,160.539,118.396,158.731,118.396,158.731"/>
				<path clip-path="url(#SVGID_26_)" fill="#FFFFFF" d="M119.288,159.473c0,0-1.971,1.53-1.455,1.715
					C118.349,161.373,119.288,159.473,119.288,159.473"/>
				<path clip-path="url(#SVGID_26_)" fill="#FFFFFF" d="M118.396,163.042c0,0,1.971,0.417,2.769,0.695
					c0.797,0.278,9.292,1.39,10.09,1.576c0.797,0.186,2.909,0.51,3.707,1.251c0.798,0.741,2.3,2.456,2.487,3.568
					c0.188,1.112-0.704,6.35-0.845,7.647c-0.141,1.297-0.234,1.854-0.234,1.854s0.938-4.866,1.22-5.608
					c0.281-0.741,0.938-2.178,0.797-2.873c-0.141-0.695,0.141-1.854,0.329-2.225c0.188-0.371-0.141-3.013-1.455-3.615
					s-12.718-1.761-14.126-1.808c-1.408-0.046-1.924-0.417-2.581-0.417C119.898,163.088,118.396,163.042,118.396,163.042"/>
				<path clip-path="url(#SVGID_26_)" fill="#FFFFFF" d="M109.386,129.128c0.299-0.07,0.281-0.052,0.299-0.139
					s-0.616-0.018-1.108,0.174c-0.493,0.191-1.091,0.573-1.091,0.573c-0.053,0.052,0.299-0.087,0.827-0.33
					c0.318-0.146,0.534-0.192,0.721-0.22c-0.001,0.135,0.01,0.517,0.165,0.382c0.14-0.121,0.235-0.29,0.165-0.336
					c-0.071-0.046-0.129,0.139-0.176,0.081c-0.024-0.03,0.028-0.101,0.083-0.163C109.308,129.144,109.346,129.137,109.386,129.128"
					/>
			</g>
		</g>
	</g>
	<g id="NewCouple">
		<g id="guy">
			<defs>
				<rect id="SVGID_27_" x="63.672" y="114.933" width="147.516" height="91.815"/>
			</defs>
			<clipPath id="SVGID_28_">
				<use xlink:href="#SVGID_27_"  overflow="visible"/>
			</clipPath>
			<path id="guy-torso" clip-path="url(#SVGID_28_)" fill="#FFFFFF" d="M99.317,135.475c0,0,1.436-0.466,2.686,1.448
				c1.25,1.914,6.433,9.818,6.433,9.818s0.729,0.219,0.656,0.51c0,0,0.948-0.364,0.875,0c0,0,0.205-0.438,0.94-0.364
				c0,0,0.153-0.364,0.591-0.073c0,0,2.26-1.093,2.333-0.875c0,0,0.511-0.729,0.948-0.365c0,0,2.697-1.75,2.989-2.26l0.438,0.072
				c0,0,1.094-0.802,1.24-1.385c0,0,0.948-0.656,2.114-0.948c0.438,0,0.583-0.073,1.021-0.365c0,0,0.27-0.292,1.046-0.437
				c0.777-0.146,0.704,0.437,0.485,0.729s-0.51,0.802-1.458,0.875c0,0-0.802,0.219,0.073,0.437c0,0,2.041,0.292,2.406,0.292
				c0,0,2.333,0,3.208-0.219c1.167,0.073,0.875,0.219,0.656,0.51c0,0,1.604,0.438,0.511,0.875c0,0,0.801,0.438-0.073,0.583
				c0,0-0.875-0.062-2.188,0.517c0,0-1.823,0.213-2.26,0.504c-0.437,0.292-1.36,0.219-1.36,0.219s-1.92,0.146-3.16-0.073
				c-0.365,0.146-0.875,0.365-0.875,0.365l-0.219,0.364c0,0-2.552,1.822-2.917,2.26c0,0,0,0.511-0.802,0.656
				c0,0-1.968,2.019-7.291,4.655c-0.875,0.011-2.61-1.004-2.61-1.004s1.517,5.194,3.777,6.174s0.729,0.656,0.438,1.385
				c-0.292,0.729-3.254,2.461-17.034,3.263c0,0-0.365-0.802-0.365-2.114c0,0-0.327-2.788-0.566-4.333c0,0-1.632-2.857-3.25-9.5
				c-0.863-3.542-0.75-7.673-0.75-7.673s0.17-3.913,2.861-4.542c0.948-0.674,1.467-2.012,1.467-2.012"/>
			<path id="guy-rt_leg" clip-path="url(#SVGID_28_)" fill="#FFFFFF" d="M93.393,163.621c0,0,0.994,7.71,4.637,8.525
				c0,0,6.964,1.925,23.219,1.744c0.193,0.016,0.242,0.513,0.549,0.045c0.308-0.468,0.66-0.317,1.012,0.438
				c0.302-0.654,0.761-0.272,0.755-0.251c-0.579,0.05-0.694,7.177-0.694,7.177c-0.277-0.076-0.479,3.573-0.503,4.001
				c-0.323,1.076-0.161,3.09-0.236,3.493c-0.479,0.982,0.201,2.315,0.151,2.642c-0.201,0.378-0.201,1.334-0.201,1.334
				s-0.277,0.855-0.126,1.031c3.523,1.083,8.631,0.981,8.631,0.981s0.176,0.101,0.378-0.125c0.201-0.226,0.15-0.679,0.15-0.679
				c-0.05-0.327,0.126-0.855,0.227-1.132c0.101-0.276,0.125-0.907,0.025-1.208c-0.102-0.302-0.051-0.553,0.176-0.981
				c0.226-0.428,0.101-0.881,0.101-0.881c-0.101-0.126,0.125-0.654,0.276-0.957c0.151-0.302,1.762-19.125,1.887-19.553
				c0.118-2.791,0.191-4.692-3.918-5.461c-1.528-0.453-1.341-0.251-1.794-0.182c-0.655-0.333-0.957-0.17-1.41-0.221
				c-0.452-0.05-0.905-0.301-1.409-0.251c-6.593-1.61-11.727-1.87-11.727-1.87c-0.402-0.662-1.107-0.109-1.107-0.109
				c-0.302-0.67-0.961,0-0.961,0c0-0.991-1.526-0.986-1.526-0.986"/>
			<path id="guy-rt__shoe" clip-path="url(#SVGID_28_)" fill="#FFFFFF" d="M130.943,194.78c-0.528,0.807,1.308,1.737,3.123,3.003
				c1.814,1.267,4.304,0.629,5.178,0.919c1.748,1.603-0.146,1.89-0.146,1.89c-7.721,0.729-5.828,0.437-9.47,0
				c-3.642-0.438-4.808-0.831-4.808-0.831v0.831c0,0-0.583,0.295-4.224,0c-0.292-7.022,1.715-6.794,1.715-6.794"/>
			<path id="guy-lt_leg_calf" clip-path="url(#SVGID_28_)" fill="#FFFFFF" d="M124.901,173.962l-6.293,16.904
				c0,0,2.103,1.751,7.417,1.865l5.286-13.111"/>
			<path id="guy-lt_shoe" clip-path="url(#SVGID_28_)" fill="#FFFFFF" d="M118.608,190.866h6.351l-2.098,3.938l-5.245-2.073
				c1.894,0.874,7.721-0.146,7.721-0.146c1.02,1.311,2.914,2.331,2.914,2.331c1.311,0.438,6.41,0.438,6.41,0.438
				c1.457,1.603,0,2.065,0,2.065c-0.583,0.316-2.914,0.848-6.119,0.994c-3.205,0.146-6.702-0.994-6.702-0.994l-0.146,0.994h-4.953
				v-1.895c0-3.35,0.874-3.787,0.874-3.787"/>
			<path id="guy-rt_arm2" clip-path="url(#SVGID_28_)" fill="#FFFFFF" d="M89.52,136.192c0,0-4.852,5.214-7.505,20.731
				c0,0-0.256,2.202,2.314,3.77c3.576,2.181,14.696,9.471,15.171,8.345c0.206-0.488,3.054-2.094,1.752-3.876
				c-2.284-3.126-9.858-6.47-11.463-8.31c-0.476-0.545-0.547-1.543-0.578-1.594c0,0,1.054-2.387,2.881-6.793
				c0,0,1.154-3.579,1.704-4.76"/>
			<path id="guy-rt_arm_1_" display="none" clip-path="url(#SVGID_28_)" fill="#FFFFFF" d="M88.371,138.13
				c0,0-2.769,5.056-2.368,20.793c0,0,0.037,3.781,3,3.25c2.359-0.422,16.002-3.303,16.25-4.5
				c0.352-1.699-12.261-1.504-12.512-1.778c0,0,0.572-2.545,1.512-7.222c0,0,0.439-3.735,0.75-5"/>
			<path id="guy-hair" clip-path="url(#SVGID_28_)" fill="#FFFFFF" d="M102.257,122.735c0,0,1.228-0.178,1.236-0.57
				c0.009-0.425-0.561-2.906-3.74-2.936c-1.942-0.589-4.603-0.447-7.981,1.828c0,0-1.529,0-1.835,2.37
				c0,1.683-0.535,1.912,1.147,5.048c0,0,0.021,2.134,1.235,2.329c0,0,0.473-1.488,1.314-1.87c-1.147-1.147-1.813-1.988-0.753-3.289
				c0.906,0.153,1.136,0.459,1.824,1.759c0.765-1.53,2.142-2.372,2.217-3.136c0.077-0.765-0.386-1.605,0.381-1.912
				C97.302,122.356,99.193,121.668,102.257,122.735"/>
			<path id="guy-hairflip" clip-path="url(#SVGID_28_)" fill="#FFFFFF" d="M103.652,122.356c0,0-0.004,0.006-0.012,0.017
				c-0.007,0.012-0.019,0.029-0.035,0.048c-0.032,0.04-0.084,0.094-0.159,0.142c-0.074,0.049-0.17,0.091-0.276,0.123
				c-0.107,0.031-0.224,0.052-0.341,0.063c-0.235,0.023-0.471,0.013-0.646-0.002s-0.292-0.034-0.292-0.034l0.043-0.212
				c0,0,0.108,0.03,0.274,0.065c0.166,0.034,0.39,0.071,0.615,0.074c0.226,0.006,0.454-0.028,0.606-0.107
				c0.076-0.037,0.133-0.083,0.169-0.118c0.019-0.017,0.031-0.033,0.039-0.044C103.647,122.361,103.652,122.356,103.652,122.356"/>
			<path id="guy-head" clip-path="url(#SVGID_28_)" fill="#FFFFFF" d="M92.318,133.395c0,0,5.353,3.052,5.011,4.801
				c0,0,1.262,1.602,1.262-1.457c0,0,0.065-2.921,1.311-2.994c1.246-0.073,2.622,1.1,3.496-0.356c-0.146-1.02-0.401-1.807,0-2.011
				c0,0,0.161-0.48-0.466-0.663c0,0-1.38,0.153,0.482-0.425c0,0,0.333-0.407-0.313-1.122c0,0,1.53-0.272,1.326-0.782
				c-0.205-0.51-0.442-0.985-1.292-2.244c0,0-0.306-0.408,0.102-0.918c0,0,0.067-1.155-1.53-3.807c0,0-3.875-4.419-9.144-1.054
				c-0.59,0.477-0.59,0.477-1.345,1.443c-0.132,0.168-0.259,0.352-0.374,0.55c-0.743,1.276-1.026,3.171,0.784,5.705
				c0,0,0.357,0.188,0.765,2.806C92.395,130.867,92.395,131.173,92.318,133.395"/>
		</g>
		<g id="stools">
			<defs>
				<rect id="SVGID_29_" x="63.672" y="114.933" width="147.516" height="91.815"/>
			</defs>
			<clipPath id="SVGID_30_">
				<use xlink:href="#SVGID_29_"  overflow="visible"/>
			</clipPath>
			<path id="stool-right" clip-path="url(#SVGID_30_)" fill="#FFFFFF" d="M190.24,174.673c1.182,0,2.139-0.958,2.139-2.139v-0.535
				c0-1.181-0.957-2.139-2.139-2.139h-14.973c-1.181,0-2.139,0.958-2.139,2.139v0.535c0,1.181,0.958,2.139,2.139,2.139h1.711
				c0,0,3.302,4.495,3.791,19.343c-6.054,0.585-7.641,3.758-7.641,3.758h7.701h3.85h7.7c0,0-1.585-3.172-7.637-3.757
				c0.5-14.414,3.787-19.344,3.787-19.344H190.24z"/>
			<path id="stool-left" clip-path="url(#SVGID_30_)" fill="#FFFFFF" d="M109.345,176.662c1.182,0,2.14-0.958,2.14-2.139v-0.534
				c0-1.182-0.958-2.14-2.14-2.14H94.373c-1.181,0-2.139,0.958-2.139,2.14v0.534c0,1.181,0.958,2.139,2.139,2.139h1.711
				c0,0,3.302,4.495,3.79,19.343c-6.053,0.586-7.641,3.758-7.641,3.758h7.701h3.851h7.7c0,0-1.586-3.171-7.636-3.757
				c0.5-14.413,3.786-19.343,3.786-19.343H109.345z"/>
		</g>
		<g id="girl">
			<defs>
				<rect id="SVGID_31_" x="63.672" y="114.933" width="147.516" height="91.815"/>
			</defs>
			<clipPath id="SVGID_32_">
				<use xlink:href="#SVGID_31_"  overflow="visible"/>
			</clipPath>
			<path id="girl-leg2" clip-path="url(#SVGID_32_)" fill="#FFFFFF" d="M172.095,161.332c0,0-12.405,0.015-14.159,0.685
				c-1.754,0.669-2.219,0.735-2.415,2.449c-0.197,1.714-1.103,11.553-1.243,20.78c-0.272,2.966-0.47,4.547-0.799,5.668
				c-0.33,1.12-0.815,0.527-1.461,4.942c-0.318,1.055-0.818,1.779-1.788,1.912c0,0-1.958,1.127-1.232,2.474c0,0-0.656,0.79,5.008,0
				c0.485-0.066,1.318-1.09,1.318-1.09s-0.302-2.687,2.175-4.195c0.528,0.043,0.521,0.307,0.521,0.307s0.125,3.888,0,4.118
				c-0.125,0.231,0.732,0.494,0.864,0s0.229-3.328,0.872-5.699c0.051-2.175-0.235-2.637-0.487-3.361c0,0-0.253-0.133-0.714,0
				l-0.066-0.726c0,0,3.292-17.617,2.799-21.043c0.628-0.33,10.31,1.845,18.32,0.593"/>
			<path id="girl-leg1" clip-path="url(#SVGID_32_)" fill="#FFFFFF" d="M179.851,170.463c0,0-8.04,0.988-14.433-2.241
				c0,0,2.373,9.861,2.307,17.901c0,0,0.593,0.132,0.593,0.527c0,0,0.396-0.329,0.725,0c0,0,0.198,0.198,0.198,0.594
				c0,0,1.977,1.186,1.647,3.361c0,0,0.396,2.768,1.055,3.954c0,0,0.065,0.703-0.857,0.572c0,0-0.922-3.405-1.449-3.603
				c0,0-1.144,0.938-0.791,3.757c0.065,0.527,0.659,1.251,0.33,1.779s-3.032,2.438-3.757,2.702c-0.725,0.264-2.24,0.33-2.57,0
				c-0.33-0.329-0.264-1.186,0-1.516c0.264-0.33,1.713-0.855,1.516-3.558c-0.197-2.702-0.197,0.263-0.593-4.745
				c-0.124-1.566,0.023-2.308,0.048-3.112c0.054-1.765-2.061-7.507-5.782-20.193c-2.438-5.536,1.978-5.866,2.241-5.799
				c0.264,0.065,4.812-0.277,11.335-0.007"/>
			<path id="girl-body" clip-path="url(#SVGID_32_)" fill="#FFFFFF" d="M170.491,136.661c0,0,3.478-0.424,4.675,0.398
				c1.198,0.823,3.518,4.64,4.041,5.987c0.524,1.347,1.422,7.185,3.742,8.756c0,0-0.173,0.374,1.148,0.374
				c0,0,0.722,0.673,0.423,1.197c-0.299,0.523,0.449,1.497,0.449,1.497s2.993,3.217,3.741,5.163
				c0.749,1.945,2.021,4.489,1.796,7.333c0,0-0.673,1.796-1.272,2.021c0,0,0.3,2.769-1.946,3.891c-2.245,1.123-5.163,0.674-6.36,0
				c-1.198-0.673-6.361-4.983-7.632-9.562c0,0-0.973-2.709-1.946-3.008l1.347,0.025c0,0,0.674-0.998,1.271-0.1l-0.074-1.197
				c0,0-0.602-3.089-1.649-3.538c-1.047-0.449-4.561-5.965-4.561-5.965s-2.797-1.12-2.873-4.562
				c0.756-3.277,1.255-5.778,0.954-5.895C165.695,139.448,168.435,143.521,170.491,136.661"/>
			<path id="girl-arm2" clip-path="url(#SVGID_32_)" fill="#FFFFFF" d="M175.091,146.565c0,0-0.207,4.278-5.312,13.768
				c0,0-0.526,1.126-1.726,1.156c-1.199,0.029-12.98,5.499-12.98,5.499s-0.661,1.184-0.348,2.914c0,0,0.074,0.967-0.117,1.127
				c-0.191,0.161-0.49,0.338-0.756,0c-0.266-0.338-1.596-2.5-1.364-3.896c0.233-1.397,2.328-5.188,3.06-5.289
				c0,0,0.858-0.998,2.625-1.43c1.765-0.433,7.182-2.935,8.238-3.819c0,0,1.296-4.59,2.195-7.051
				c0.898-2.461,1.031-5.887,1.031-5.887s0.612-3.698,2.474-4.496s2.868,0.732,2.98,0.898S177.639,143.624,175.091,146.565"/>
			<path id="girl-arm1" clip-path="url(#SVGID_32_)" fill="#FFFFFF" d="M168.345,160.074c0,0-1.615,1.071-6.949-3.835
				c0,0-0.903-0.992-2.43-1.081c0,0-3.016,0.065-0.083,1.352c0,0,0.926,1.026-1.165,0.088c0,0-0.444-0.047-0.756-0.076
				c-0.635-0.058,0.036,1.767-0.082,1.396c-0.119-0.372-0.215,2.283,1.254,2.442c1.469,0.159,0.48,0.171,3.026-0.049
				c0.735,0.001,2.515,1.024,3.616,2.129c1.1,1.105,4.818,3.39,8.555,3.859"/>
			<path id="girl-glass" clip-path="url(#SVGID_32_)" fill="#FFFFFF" d="M160.132,162.291c1.865,0.087-4.662,0-4.662,0
				s1.851,0.026,2.069-1.152v-5.112l-3.379-3.605h7.576l-3.599,3.605v5.112C158.136,161.138,158.267,162.203,160.132,162.291"/>
			<g id="girl-head" clip-path="url(#SVGID_32_)">
				<path fill-rule="evenodd" clip-rule="evenodd" fill="#FFFFFF" d="M177.716,145.918l-0.087-0.266
					c-0.056-0.451-0.113-0.904-0.208-1.347c-0.125-0.583-0.262-1.161-0.324-1.755c-0.018-0.168-0.031-0.336-0.057-0.505
					c-0.022-0.137-0.094-0.281-0.018-0.429c0.026,0.255,0.222,0.462,0.193,0.733c-0.008,0.073,0.015,0.169,0.118,0.151
					c0.087-0.014,0.085-0.109,0.064-0.17c-0.13-0.374-0.275-2.483-0.428-2.844c-0.307-0.724,1.529,0.077,1.529,0.077
					c-0.008-0.183-1.196-1.128-1.249-1.301c-0.109-0.358-0.3-0.41-0.439-0.764c-0.108-0.276-0.489-0.774-0.561-1.063
					c-0.067-0.273-0.015-0.582-0.232-0.813c-0.003-0.004,0.1-0.013,0.097-0.02c-0.157-0.321-0.402-1.58-0.421-1.58
					c-0.087-0.368-0.198-0.729-0.351-1.077c-0.089-0.202-0.187-0.768-0.228-0.886c-0.062-0.179-0.133-0.358-0.175-0.543
					c-0.141-0.63-0.299-1.255-0.479-1.875c-0.176-0.601-0.379-1.193-0.537-1.799c-0.339-1.309-0.723-2.598-1.433-3.765
					c-0.597-0.983-1.485-1.881-2.514-2.454c-0.28-0.155-0.579-0.316-0.893-0.338c-0.592-0.04-1.189-0.116-1.784-0.019
					c-0.294,0.048-0.596,0.083-0.872,0.185c-0.198,0.073-0.381,0.195-0.59,0.261c-0.13,0.041-0.253,0.012-0.38,0.036
					c-0.298,0.056-0.546,0.281-0.872,0.24c-0.053-0.007-0.113,0.04-0.171,0.06c-0.14,0.051-0.282,0.099-0.423,0.151
					c-0.611,0.224-1.201,0.479-1.624,1.007c-0.054,0.068-0.132,0.118-0.201,0.172c-0.4,0.315-0.831,0.601-1.11,1.042
					c-0.202,0.319-0.34,0.665-0.361,1.047c-0.007,0.13,0.295,0.546,0.272,0.639c-0.126,0.515-0.203,1.998-0.31,2.147
					c-0.06,0.082-0.073,0.207-0.023,0.296c0.181,0.324-0.069,1.281-0.143,1.414c-0.092,0.166-0.202,0.322-0.301,0.485
					c-0.203,0.334-0.4,0.464-0.714,0.956c-0.313,0.491-0.219,0.766,0.048,0.831l0.448,0.225c0,0,0.177,0.155,0.164,0.292
					c-0.025,0.272-0.018,0.154-0.046,0.543c-0.029,0.39,0.433,0.391,0.493,0.428l0.354,0.084c0,0,0.122,0.036,0.14,0.104
					c0.02,0.075-0.038,0.122-0.089,0.145c-0.162,0.075-0.246,0.184-0.305,0.363c-0.08,0.241-0.025,0.408,0.232,0.45
					c0.233,0.039,0.305,0.132,0.241,0.366c-0.06,0.219-0.039,0.435,0.002,0.646c0.021,0.105-0.01,0.211,0.049,0.316
					c0.154,0.273,0.414,0.316,0.68,0.302c0.372-0.019,0.744-0.065,1.114-0.115c0.338-0.045,0.661-0.163,0.993-0.234
					c0.267-0.058,0.551-0.073,0.76,0.163c0.099,0.111,0.184,0.239,0.254,0.369c0.461,0.854,0.844,1.725,0.858,2.731
					c0.008,0.493,0.656,4.135,0.7,4.155L177.716,145.918z M177.433,145.884c-0.087,0.014-0.154-0.01-0.169-0.123
					c-0.05-0.381-0.153-0.752-0.261-1.119c-0.113-0.379-0.083-0.781-0.21-1.157c-0.02-0.059-0.007-0.133,0.043-0.224
					c0.209,0.328,0.269,0.667,0.305,1.013c0.013,0.124,0.044,0.234,0.136,0.329c0.125,0.127,0.116,0.301,0.116,0.462
					c-0.001,0.224-0.01,0.447,0.088,0.659C177.507,145.777,177.542,145.867,177.433,145.884"/>
			</g>
		</g>
	</g>
</g>
<g id="Favicon" display="none">
	<radialGradient id="Wide_1_" cx="132.6738" cy="191.6729" r="174.5076" gradientUnits="userSpaceOnUse">
		<stop  offset="0" style="stop-color:#000527"/>
		<stop  offset="0.3904" style="stop-color:#142A55"/>
		<stop  offset="0.8068" style="stop-color:#1B488B"/>
		<stop  offset="1" style="stop-color:#1654A5"/>
	</radialGradient>
	<path id="Wide" fill="url(#Wide_1_)" d="M307.181,191.672c0,96.376-78.128,174.509-174.507,174.509
		c-96.378,0-174.508-78.133-174.508-174.509c0-96.375,78.13-174.507,174.508-174.507C229.053,17.165,307.181,95.296,307.181,191.672
		z"/>
	<radialGradient id="Narrow_1_" cx="132.6748" cy="191.6729" r="161.8489" gradientUnits="userSpaceOnUse">
		<stop  offset="0" style="stop-color:#1F266E"/>
		<stop  offset="0.1776" style="stop-color:#1F2E74"/>
		<stop  offset="0.4693" style="stop-color:#1D4185"/>
		<stop  offset="0.5753" style="stop-color:#1B498D"/>
		<stop  offset="0.6433" style="stop-color:#1A4B92"/>
		<stop  offset="0.8381" style="stop-color:#18519F"/>
		<stop  offset="1" style="stop-color:#1654A5"/>
	</radialGradient>
	<path id="Narrow" display="inline" fill="url(#Narrow_1_)" d="M294.523,191.67c0,89.388-72.464,161.853-161.849,161.853
		c-89.386,0-161.848-72.465-161.848-161.853c0-89.385,72.462-161.847,161.848-161.847
		C222.059,29.823,294.523,102.285,294.523,191.67z"/>
	
		<text transform="matrix(1 0 0 1 6.9771 257.9053)" display="inline" fill="#FFFFFF" font-family="'ComicSansMS-Bold'" font-size="187">LN</text>
</g>
</svg>
